<svg id="Logo" xmlns="http://www.w3.org/2000/svg" xmlns:xlink="http://www.w3.org/1999/xlink" width="165.736" height="123.172" viewBox="0 0 165.736 123.172">
  <defs>
    <clipPath id="clip-path">
      <rect id="Rectangle_3608" data-name="Rectangle 3608" width="165.736" height="123.172" fill="none"/>
    </clipPath>
    <clipPath id="clip-path-2">
      <rect id="Rectangle_3603" data-name="Rectangle 3603" width="94.585" height="31.423" transform="translate(35.662 16.262)" fill="none"/>
    </clipPath>
    <clipPath id="clip-path-3">
      <rect id="Rectangle_3602" data-name="Rectangle 3602" width="94.585" height="31.422" transform="translate(35.662 16.262)" fill="none"/>
    </clipPath>
    <clipPath id="clip-path-4">
      <rect id="Rectangle_3605" data-name="Rectangle 3605" width="73.289" height="49.061" transform="translate(46.31 5.754)" fill="none"/>
    </clipPath>
    <clipPath id="clip-path-5">
      <rect id="Rectangle_3604" data-name="Rectangle 3604" width="73.289" height="49.06" transform="translate(46.31 5.754)" fill="none"/>
    </clipPath>
    <clipPath id="clip-path-6">
      <rect id="Rectangle_3607" data-name="Rectangle 3607" width="51.991" height="60.569" transform="translate(56.959)" fill="none"/>
    </clipPath>
    <clipPath id="clip-path-7">
      <rect id="Rectangle_3606" data-name="Rectangle 3606" width="51.991" height="60.568" transform="translate(56.959)" fill="none"/>
    </clipPath>
  </defs>
  <path id="Path_49174" data-name="Path 49174" d="M4.486,115.589v4.495l-3.344-4.495H.4v5.795h.786v-4.5l3.345,4.5h.745v-5.795Z" fill="#fff"/>
  <g id="Group_14309" data-name="Group 14309">
    <g id="Group_14308" data-name="Group 14308" clip-path="url(#clip-path)">
      <path id="Path_49175" data-name="Path 49175" d="M9.438,120.571a1.241,1.241,0,0,1-.547.655,1.824,1.824,0,0,1-.96.24,1.563,1.563,0,0,1-1.093-.356,1.219,1.219,0,0,1-.389-.944,1.068,1.068,0,0,1,.517-.964,2.685,2.685,0,0,1,1.437-.327,6.567,6.567,0,0,1,.944.074l-.009-.306a.808.808,0,0,0-.273-.663,1.114,1.114,0,0,0-.728-.223,1.556,1.556,0,0,0-.683.153,1.447,1.447,0,0,0-.534.435l-.422-.431a2.029,2.029,0,0,1,.749-.575,2.284,2.284,0,0,1,.948-.195,1.887,1.887,0,0,1,.89.2,1.461,1.461,0,0,1,.6.567,1.636,1.636,0,0,1,.211.836v2.633H9.438Zm-.911-1.241a1.954,1.954,0,0,0-.977.2.646.646,0,0,0-.348.592.722.722,0,0,0,.228.567,1,1,0,0,0,.683.2,1.246,1.246,0,0,0,.9-.319,1.177,1.177,0,0,0,.332-.89V119.4a4.993,4.993,0,0,0-.82-.075" fill="#fff"/>
      <path id="Path_49176" data-name="Path 49176" d="M11.61,121.164a.727.727,0,0,1-.22-.533l.008-2.708h-.844v-.687H11.4v-1.292h.762v1.292h1.275v.687H12.16v2.649a.109.109,0,0,0,.034.083.111.111,0,0,0,.082.033h1.167v.7H12.135a.713.713,0,0,1-.525-.22" fill="#fff"/>
      <path id="Path_49177" data-name="Path 49177" d="M14.45,116.2a.476.476,0,0,1-.145-.351.467.467,0,0,1,.145-.344.477.477,0,0,1,.352-.145.455.455,0,0,1,.339.145.475.475,0,0,1,.141.344.484.484,0,0,1-.141.351.455.455,0,0,1-.339.145.477.477,0,0,1-.352-.145m.733,5.187h-.762v-4.139h.762Z" fill="#fff"/>
      <path id="Path_49178" data-name="Path 49178" d="M17.285,121.206a1.941,1.941,0,0,1-.769-.774,2.334,2.334,0,0,1-.273-1.143,2.177,2.177,0,0,1,.281-1.109,1.977,1.977,0,0,1,.782-.762,2.34,2.34,0,0,1,1.139-.273,2.294,2.294,0,0,1,1.13.273,1.966,1.966,0,0,1,.77.762,2.205,2.205,0,0,1,.277,1.109,2.269,2.269,0,0,1-.281,1.13,2.018,2.018,0,0,1-.783.783,2.272,2.272,0,0,1-1.13.281,2.308,2.308,0,0,1-1.143-.277m1.88-.588a1.358,1.358,0,0,0,.5-.538,1.631,1.631,0,0,0,.182-.774,1.656,1.656,0,0,0-.182-.783,1.345,1.345,0,0,0-1.225-.732,1.348,1.348,0,0,0-1.027.422,1.71,1.71,0,0,0-.008,2.181,1.324,1.324,0,0,0,1.018.419,1.4,1.4,0,0,0,.737-.2" fill="#fff"/>
      <path id="Path_49179" data-name="Path 49179" d="M24.6,117.351a1.582,1.582,0,0,1,.567.559,1.485,1.485,0,0,1,.211.774v2.7h-.77v-2.459a1.076,1.076,0,0,0-.145-.542,1.1,1.1,0,0,0-.4-.4,1.067,1.067,0,0,0-.551-.149,1.044,1.044,0,0,0-.546.149,1.094,1.094,0,0,0-.393.4,1.058,1.058,0,0,0-.146.546v2.459h-.769v-4.14h.753v.737a1.467,1.467,0,0,1,.572-.608,1.593,1.593,0,0,1,.835-.228,1.521,1.521,0,0,1,.779.207" fill="#fff"/>
      <path id="Path_49180" data-name="Path 49180" d="M29.364,120.571a1.241,1.241,0,0,1-.547.655,1.824,1.824,0,0,1-.96.24,1.563,1.563,0,0,1-1.093-.356,1.219,1.219,0,0,1-.389-.944,1.068,1.068,0,0,1,.517-.964,2.685,2.685,0,0,1,1.437-.327,6.567,6.567,0,0,1,.944.074l-.009-.306a.808.808,0,0,0-.273-.663,1.114,1.114,0,0,0-.728-.223,1.556,1.556,0,0,0-.683.153,1.447,1.447,0,0,0-.534.435l-.422-.431a2.029,2.029,0,0,1,.749-.575,2.284,2.284,0,0,1,.948-.195,1.887,1.887,0,0,1,.89.2,1.462,1.462,0,0,1,.6.567,1.636,1.636,0,0,1,.211.836v2.633h-.654Zm-.911-1.241a1.954,1.954,0,0,0-.977.2.646.646,0,0,0-.348.592.722.722,0,0,0,.228.567,1,1,0,0,0,.683.2,1.246,1.246,0,0,0,.9-.319,1.177,1.177,0,0,0,.332-.89V119.4a4.993,4.993,0,0,0-.82-.075" fill="#fff"/>
      <rect id="Rectangle_3596" data-name="Rectangle 3596" width="0.77" height="5.795" transform="translate(31.036 115.588)" fill="#fff"/>
      <path id="Path_49181" data-name="Path 49181" d="M36.2,121.1a2.659,2.659,0,0,1-1.035-1.076,3.247,3.247,0,0,1-.36-1.536,3.2,3.2,0,0,1,.364-1.535,2.685,2.685,0,0,1,1.039-1.077,3.045,3.045,0,0,1,1.561-.393,2.821,2.821,0,0,1,1.482.389,2.681,2.681,0,0,1,1.01,1.1l-.654.373a1.984,1.984,0,0,0-.733-.812,2.027,2.027,0,0,0-1.1-.306,2.125,2.125,0,0,0-1.118.294,1.978,1.978,0,0,0-.753.811,2.493,2.493,0,0,0-.265,1.155,2.518,2.518,0,0,0,.261,1.159,1.957,1.957,0,0,0,.749.807,2.142,2.142,0,0,0,1.126.294,2.081,2.081,0,0,0,1.109-.294,1.923,1.923,0,0,0,.737-.824l.646.39a2.478,2.478,0,0,1-.994,1.1,2.909,2.909,0,0,1-1.5.377A3.062,3.062,0,0,1,36.2,121.1" fill="#fff"/>
      <path id="Path_49182" data-name="Path 49182" d="M41.869,120.187a1.293,1.293,0,0,0,.513.484,1.538,1.538,0,0,0,.733.174,1.922,1.922,0,0,0,.82-.178,1.408,1.408,0,0,0,.587-.484l.439.447a1.771,1.771,0,0,1-.77.625,2.664,2.664,0,0,1-1.109.228,2.315,2.315,0,0,1-1.134-.274,1.909,1.909,0,0,1-.77-.77,2.315,2.315,0,0,1-.273-1.134,2.219,2.219,0,0,1,.277-1.117,1.969,1.969,0,0,1,.766-.762,2.234,2.234,0,0,1,1.109-.273,2.2,2.2,0,0,1,1.134.277,1.679,1.679,0,0,1,.7.8,2.723,2.723,0,0,1,.186,1.246H41.683a1.351,1.351,0,0,0,.186.708m.5-2.285a1.327,1.327,0,0,0-.493.455,1.276,1.276,0,0,0-.2.633h2.649a1.307,1.307,0,0,0-.356-.91,1.214,1.214,0,0,0-.911-.348,1.418,1.418,0,0,0-.691.17" fill="#fff"/>
      <path id="Path_49183" data-name="Path 49183" d="M49.05,117.351a1.577,1.577,0,0,1,.568.559,1.485,1.485,0,0,1,.211.774v2.7h-.77v-2.459a1.076,1.076,0,0,0-.145-.542,1.1,1.1,0,0,0-.4-.4,1.07,1.07,0,0,0-.551-.149,1.042,1.042,0,0,0-.546.149,1.105,1.105,0,0,0-.394.4,1.057,1.057,0,0,0-.145.546v2.459h-.769v-4.14h.753v.737a1.464,1.464,0,0,1,.571-.608,1.6,1.6,0,0,1,.836-.228,1.518,1.518,0,0,1,.778.207" fill="#fff"/>
      <path id="Path_49184" data-name="Path 49184" d="M51.637,121.164a.727.727,0,0,1-.22-.533l.008-2.708h-.844v-.687h.844v-1.292h.762v1.292h1.275v.687H52.187v2.649a.109.109,0,0,0,.034.083.111.111,0,0,0,.082.033H53.47v.7H52.162a.713.713,0,0,1-.525-.22" fill="#fff"/>
      <path id="Path_49185" data-name="Path 49185" d="M55.031,120.187a1.293,1.293,0,0,0,.513.484,1.538,1.538,0,0,0,.733.174,1.922,1.922,0,0,0,.82-.178,1.408,1.408,0,0,0,.587-.484l.439.447a1.771,1.771,0,0,1-.77.625,2.664,2.664,0,0,1-1.109.228,2.315,2.315,0,0,1-1.134-.274,1.909,1.909,0,0,1-.77-.77,2.315,2.315,0,0,1-.273-1.134,2.219,2.219,0,0,1,.277-1.117,1.969,1.969,0,0,1,.766-.762,2.234,2.234,0,0,1,1.109-.273,2.2,2.2,0,0,1,1.134.277,1.679,1.679,0,0,1,.7.8,2.723,2.723,0,0,1,.186,1.246H54.845a1.351,1.351,0,0,0,.186.708m.5-2.285a1.327,1.327,0,0,0-.493.455,1.276,1.276,0,0,0-.2.633h2.649a1.307,1.307,0,0,0-.356-.91,1.214,1.214,0,0,0-.911-.348,1.418,1.418,0,0,0-.691.17" fill="#fff"/>
      <path id="Path_49186" data-name="Path 49186" d="M61.774,117.211l-.025.72a4.931,4.931,0,0,0-.5-.025,1.171,1.171,0,0,0-.878.34,1.246,1.246,0,0,0-.331.91v2.227h-.762v-4.139h.745v.778a1.533,1.533,0,0,1,.551-.633,1.443,1.443,0,0,1,.807-.236,1.242,1.242,0,0,1,.4.058" fill="#fff"/>
      <path id="Path_49187" data-name="Path 49187" d="M63.877,117.236h.936v-.629a.931.931,0,0,1,.314-.749,1.143,1.143,0,0,1,.77-.27h.928v.671h-.878a.349.349,0,0,0-.265.116.4.4,0,0,0-.108.281v.58H66.8v.687H65.574v3.46h-.761v-3.46h-.936Z" fill="#fff"/>
      <path id="Path_49188" data-name="Path 49188" d="M68.264,121.206a1.941,1.941,0,0,1-.769-.774,2.334,2.334,0,0,1-.273-1.143,2.177,2.177,0,0,1,.281-1.109,1.977,1.977,0,0,1,.782-.762,2.34,2.34,0,0,1,1.139-.273,2.291,2.291,0,0,1,1.13.273,1.966,1.966,0,0,1,.77.762,2.2,2.2,0,0,1,.277,1.109,2.269,2.269,0,0,1-.281,1.13,2.018,2.018,0,0,1-.783.783,2.272,2.272,0,0,1-1.13.281,2.308,2.308,0,0,1-1.143-.277m1.88-.588a1.357,1.357,0,0,0,.505-.538,1.631,1.631,0,0,0,.182-.774,1.656,1.656,0,0,0-.182-.783,1.345,1.345,0,0,0-1.225-.732,1.348,1.348,0,0,0-1.027.422,1.71,1.71,0,0,0-.008,2.181,1.326,1.326,0,0,0,1.018.419,1.4,1.4,0,0,0,.737-.2" fill="#fff"/>
      <path id="Path_49189" data-name="Path 49189" d="M75.144,117.211l-.025.72a4.931,4.931,0,0,0-.5-.025,1.171,1.171,0,0,0-.878.34,1.247,1.247,0,0,0-.332.91v2.227h-.761v-4.139h.745v.778a1.533,1.533,0,0,1,.551-.633,1.442,1.442,0,0,1,.807-.236,1.242,1.242,0,0,1,.4.058" fill="#fff"/>
      <path id="Path_49190" data-name="Path 49190" d="M78.418,121.152a2.1,2.1,0,0,1-.881-.969l.554-.422a1.877,1.877,0,0,0,1.788,1.01,1.694,1.694,0,0,0,1-.261.827.827,0,0,0,.364-.708.7.7,0,0,0-.244-.558,2.027,2.027,0,0,0-.832-.352l-.853-.2a2.669,2.669,0,0,1-1.225-.592,1.3,1.3,0,0,1-.4-.981,1.508,1.508,0,0,1,.248-.86,1.594,1.594,0,0,1,.72-.576,2.822,2.822,0,0,1,1.118-.2,2.785,2.785,0,0,1,1.324.3,1.9,1.9,0,0,1,.828.812l-.546.43a1.655,1.655,0,0,0-.654-.617,2.044,2.044,0,0,0-.952-.211,1.612,1.612,0,0,0-.948.24.781.781,0,0,0-.335.671.665.665,0,0,0,.248.538,2.144,2.144,0,0,0,.869.347l.878.216a2.437,2.437,0,0,1,1.183.579,1.348,1.348,0,0,1,.373.985,1.544,1.544,0,0,1-.269.9,1.748,1.748,0,0,1-.765.6,2.893,2.893,0,0,1-1.16.215,2.836,2.836,0,0,1-1.436-.339" fill="#fff"/>
      <path id="Path_49191" data-name="Path 49191" d="M83.609,121.164a.727.727,0,0,1-.22-.533l.008-2.708h-.844v-.687H83.4v-1.292h.762v1.292h1.275v.687H84.159v2.649a.109.109,0,0,0,.034.083.111.111,0,0,0,.082.033h1.167v.7H84.134a.713.713,0,0,1-.525-.22" fill="#fff"/>
      <path id="Path_49192" data-name="Path 49192" d="M88.9,117.211l-.025.72a4.931,4.931,0,0,0-.5-.025,1.171,1.171,0,0,0-.878.34,1.247,1.247,0,0,0-.332.91v2.227H86.4v-4.139h.745v.778a1.533,1.533,0,0,1,.551-.633,1.443,1.443,0,0,1,.807-.236,1.242,1.242,0,0,1,.4.058" fill="#fff"/>
      <path id="Path_49193" data-name="Path 49193" d="M92.306,120.571a1.241,1.241,0,0,1-.547.655,1.824,1.824,0,0,1-.96.24,1.563,1.563,0,0,1-1.093-.356,1.219,1.219,0,0,1-.389-.944,1.068,1.068,0,0,1,.517-.964,2.685,2.685,0,0,1,1.437-.327,6.567,6.567,0,0,1,.944.074l-.009-.306a.808.808,0,0,0-.273-.663,1.114,1.114,0,0,0-.728-.223,1.556,1.556,0,0,0-.683.153,1.447,1.447,0,0,0-.534.435l-.422-.431a2.029,2.029,0,0,1,.749-.575,2.284,2.284,0,0,1,.948-.195,1.887,1.887,0,0,1,.89.2,1.462,1.462,0,0,1,.6.567,1.636,1.636,0,0,1,.211.836v2.633h-.654Zm-.911-1.241a1.954,1.954,0,0,0-.977.2.646.646,0,0,0-.348.592.722.722,0,0,0,.228.567,1,1,0,0,0,.683.2,1.246,1.246,0,0,0,.9-.319,1.177,1.177,0,0,0,.332-.89V119.4a4.993,4.993,0,0,0-.82-.075" fill="#fff"/>
      <path id="Path_49194" data-name="Path 49194" d="M94.479,121.164a.724.724,0,0,1-.221-.533l.008-2.708h-.844v-.687h.844v-1.292h.762v1.292H96.3v.687H95.028v2.649a.116.116,0,0,0,.116.116h1.167v.7H95a.709.709,0,0,1-.524-.22" fill="#fff"/>
      <path id="Path_49195" data-name="Path 49195" d="M97.873,120.187a1.293,1.293,0,0,0,.513.484,1.538,1.538,0,0,0,.733.174,1.922,1.922,0,0,0,.82-.178,1.408,1.408,0,0,0,.587-.484l.439.447a1.771,1.771,0,0,1-.77.625,2.664,2.664,0,0,1-1.109.228,2.315,2.315,0,0,1-1.134-.274,1.909,1.909,0,0,1-.77-.77,2.315,2.315,0,0,1-.273-1.134,2.219,2.219,0,0,1,.277-1.117,1.969,1.969,0,0,1,.766-.762,2.234,2.234,0,0,1,1.109-.273,2.2,2.2,0,0,1,1.134.277,1.679,1.679,0,0,1,.7.8,2.723,2.723,0,0,1,.186,1.246H97.687a1.351,1.351,0,0,0,.186.708m.5-2.285a1.327,1.327,0,0,0-.493.455,1.276,1.276,0,0,0-.2.633h2.649a1.307,1.307,0,0,0-.356-.91,1.214,1.214,0,0,0-.911-.348,1.418,1.418,0,0,0-.691.17" fill="#fff"/>
      <path id="Path_49196" data-name="Path 49196" d="M105.9,122.141a1.95,1.95,0,0,1-.761.757,2.239,2.239,0,0,1-1.11.274,2.671,2.671,0,0,1-1.171-.253,2.124,2.124,0,0,1-.824-.666l.365-.53a1.838,1.838,0,0,0,.67.567,1.97,1.97,0,0,0,.91.211,1.527,1.527,0,0,0,.737-.178,1.327,1.327,0,0,0,.53-.526,1.633,1.633,0,0,0,.2-.827v-.621a1.615,1.615,0,0,1-.592.728,1.659,1.659,0,0,1-.956.273,2.074,2.074,0,0,1-1.072-.269,1.8,1.8,0,0,1-.708-.753,2.4,2.4,0,0,1-.248-1.114,2.315,2.315,0,0,1,.239-1.072,1.789,1.789,0,0,1,.684-.732,1.98,1.98,0,0,1,1.039-.265,1.924,1.924,0,0,1,.807.157,1.68,1.68,0,0,1,.55.385,1.3,1.3,0,0,1,.282.451v-.91h.7v3.816a2.186,2.186,0,0,1-.273,1.1m-1.163-1.6a1.3,1.3,0,0,0,.5-.513,1.543,1.543,0,0,0,.182-.754,1.561,1.561,0,0,0-.191-.79,1.255,1.255,0,0,0-.509-.505,1.446,1.446,0,0,0-.691-.17,1.322,1.322,0,0,0-1.006.406,1.634,1.634,0,0,0,0,2.1,1.3,1.3,0,0,0,.994.406,1.439,1.439,0,0,0,.724-.182" fill="#fff"/>
      <path id="Path_49197" data-name="Path 49197" d="M107.525,116.2a.479.479,0,0,1-.144-.351.47.47,0,0,1,.144-.344.478.478,0,0,1,.352-.145.455.455,0,0,1,.34.145.475.475,0,0,1,.141.344.484.484,0,0,1-.141.351.455.455,0,0,1-.34.145.479.479,0,0,1-.352-.145m.733,5.187H107.5v-4.139h.762Z" fill="#fff"/>
      <path id="Path_49198" data-name="Path 49198" d="M110.345,121.213a1.938,1.938,0,0,1-.75-.778,2.569,2.569,0,0,1,0-2.285,1.964,1.964,0,0,1,.754-.782,2.165,2.165,0,0,1,1.105-.282,2.209,2.209,0,0,1,1.089.265,1.873,1.873,0,0,1,.741.746l-.572.389a1.466,1.466,0,0,0-.525-.522,1.4,1.4,0,0,0-.708-.182,1.293,1.293,0,0,0-1,.418,1.731,1.731,0,0,0,0,2.177,1.293,1.293,0,0,0,1,.418,1.378,1.378,0,0,0,.712-.19,1.448,1.448,0,0,0,.521-.53l.572.389a1.877,1.877,0,0,1-.746.758,2.342,2.342,0,0,1-2.193-.009" fill="#fff"/>
      <path id="Path_49199" data-name="Path 49199" d="M119.608,115.833a1.75,1.75,0,0,1,.662.674,1.973,1.973,0,0,1,.241.977,2.009,2.009,0,0,1-.241.989,1.743,1.743,0,0,1-.662.679,1.85,1.85,0,0,1-.944.244h-1.672v1.987h-.787v-5.8h2.459a1.851,1.851,0,0,1,.944.245m-.236,2.512a1.187,1.187,0,0,0,.319-.861,1.162,1.162,0,0,0-.323-.84,1.067,1.067,0,0,0-.8-.335h-1.573v2.367h1.573a1.071,1.071,0,0,0,.807-.331" fill="#fff"/>
      <path id="Path_49200" data-name="Path 49200" d="M124.1,120.571a1.241,1.241,0,0,1-.547.655,1.824,1.824,0,0,1-.96.24,1.563,1.563,0,0,1-1.093-.356,1.219,1.219,0,0,1-.389-.944,1.068,1.068,0,0,1,.517-.964,2.685,2.685,0,0,1,1.437-.327,6.567,6.567,0,0,1,.944.074l-.009-.306a.808.808,0,0,0-.273-.663,1.114,1.114,0,0,0-.728-.223,1.556,1.556,0,0,0-.683.153,1.447,1.447,0,0,0-.534.435l-.422-.431a2.029,2.029,0,0,1,.749-.575,2.284,2.284,0,0,1,.948-.195,1.887,1.887,0,0,1,.89.2,1.461,1.461,0,0,1,.6.567,1.636,1.636,0,0,1,.211.836v2.633H124.1Zm-.911-1.241a1.954,1.954,0,0,0-.977.2.646.646,0,0,0-.348.592.722.722,0,0,0,.228.567,1,1,0,0,0,.683.2,1.246,1.246,0,0,0,.9-.319,1.177,1.177,0,0,0,.332-.89V119.4a4.993,4.993,0,0,0-.82-.075" fill="#fff"/>
      <path id="Path_49201" data-name="Path 49201" d="M128.309,117.211l-.025.72a4.931,4.931,0,0,0-.5-.025,1.171,1.171,0,0,0-.878.34,1.247,1.247,0,0,0-.332.91v2.227h-.761v-4.139h.745v.778a1.533,1.533,0,0,1,.551-.633,1.442,1.442,0,0,1,.807-.236,1.243,1.243,0,0,1,.4.058" fill="#fff"/>
      <path id="Path_49202" data-name="Path 49202" d="M129.886,121.164a.727.727,0,0,1-.22-.533l.008-2.708h-.844v-.687h.844v-1.292h.762v1.292h1.275v.687h-1.275v2.649a.109.109,0,0,0,.034.083.111.111,0,0,0,.082.033h1.167v.7h-1.308a.713.713,0,0,1-.525-.22" fill="#fff"/>
      <path id="Path_49203" data-name="Path 49203" d="M135.619,117.351a1.577,1.577,0,0,1,.568.559,1.485,1.485,0,0,1,.211.774v2.7h-.77v-2.459a1.076,1.076,0,0,0-.145-.542,1.1,1.1,0,0,0-.4-.4,1.07,1.07,0,0,0-.551-.149,1.042,1.042,0,0,0-.546.149,1.1,1.1,0,0,0-.394.4,1.057,1.057,0,0,0-.145.546v2.459h-.769v-4.14h.753v.737a1.464,1.464,0,0,1,.571-.608,1.6,1.6,0,0,1,.836-.228,1.518,1.518,0,0,1,.778.207" fill="#fff"/>
      <path id="Path_49204" data-name="Path 49204" d="M138.347,120.187a1.293,1.293,0,0,0,.513.484,1.538,1.538,0,0,0,.733.174,1.925,1.925,0,0,0,.82-.178,1.408,1.408,0,0,0,.587-.484l.439.447a1.771,1.771,0,0,1-.77.625,2.664,2.664,0,0,1-1.109.228,2.315,2.315,0,0,1-1.134-.274,1.909,1.909,0,0,1-.77-.77,2.315,2.315,0,0,1-.273-1.134,2.219,2.219,0,0,1,.277-1.117,1.969,1.969,0,0,1,.766-.762,2.234,2.234,0,0,1,1.109-.273,2.2,2.2,0,0,1,1.134.277,1.679,1.679,0,0,1,.7.8,2.723,2.723,0,0,1,.186,1.246h-3.394a1.351,1.351,0,0,0,.186.708m.5-2.285a1.327,1.327,0,0,0-.493.455,1.276,1.276,0,0,0-.2.633H140.8a1.307,1.307,0,0,0-.356-.91,1.214,1.214,0,0,0-.911-.348,1.418,1.418,0,0,0-.691.17" fill="#fff"/>
      <path id="Path_49205" data-name="Path 49205" d="M145.089,117.211l-.025.72a4.931,4.931,0,0,0-.5-.025,1.17,1.17,0,0,0-.878.34,1.247,1.247,0,0,0-.332.91v2.227h-.761v-4.139h.745v.778a1.533,1.533,0,0,1,.551-.633,1.443,1.443,0,0,1,.807-.236,1.242,1.242,0,0,1,.4.058" fill="#fff"/>
      <path id="Path_49206" data-name="Path 49206" d="M146.3,121.288a1.714,1.714,0,0,1-.753-.567l.356-.5a1.668,1.668,0,0,0,.646.468,2.145,2.145,0,0,0,.852.169,1.149,1.149,0,0,0,.675-.169.53.53,0,0,0,.236-.451.448.448,0,0,0-.162-.36,1.242,1.242,0,0,0-.525-.22l-.812-.2a1.654,1.654,0,0,1-.836-.41.977.977,0,0,1-.265-.7,1.1,1.1,0,0,1,.443-.919,1.964,1.964,0,0,1,1.221-.339,2.672,2.672,0,0,1,.982.17,1.516,1.516,0,0,1,.674.484l-.364.505a1.748,1.748,0,0,0-1.3-.522,1.176,1.176,0,0,0-.666.157.506.506,0,0,0-.228.439.434.434,0,0,0,.157.348,1.252,1.252,0,0,0,.522.215l.8.2a1.824,1.824,0,0,1,.869.418.957.957,0,0,1,.265.7,1.133,1.133,0,0,1-.447.944,2,2,0,0,1-1.25.347,2.827,2.827,0,0,1-1.093-.2" fill="#fff"/>
      <path id="Path_49207" data-name="Path 49207" d="M153.062,117.364a1.482,1.482,0,0,1,.559.555,1.551,1.551,0,0,1,.2.79v2.674h-.761v-2.491a1.071,1.071,0,0,0-.315-.783,1.041,1.041,0,0,0-.77-.318,1.068,1.068,0,0,0-.795.331,1.125,1.125,0,0,0-.322.819v2.442h-.77v-5.8h.77v2.326a1.24,1.24,0,0,1,.55-.546,1.781,1.781,0,0,1,.857-.207,1.581,1.581,0,0,1,.795.2" fill="#fff"/>
      <path id="Path_49208" data-name="Path 49208" d="M155.143,116.2a.479.479,0,0,1-.144-.351.47.47,0,0,1,.144-.344.478.478,0,0,1,.352-.145.455.455,0,0,1,.34.145.475.475,0,0,1,.141.344.484.484,0,0,1-.141.351.455.455,0,0,1-.34.145.478.478,0,0,1-.352-.145m.733,5.187h-.762v-4.139h.762Z" fill="#fff"/>
      <path id="Path_49209" data-name="Path 49209" d="M160.976,117.737a2.324,2.324,0,0,1,.522,1.594,2.5,2.5,0,0,1-.241,1.117,1.805,1.805,0,0,1-.686.762,1.962,1.962,0,0,1-1.043.273,1.725,1.725,0,0,1-1.019-.3,1.411,1.411,0,0,1-.563-.708v2.442h-.753v-5.671h.7v.919a1.546,1.546,0,0,1,.642-.741,1.882,1.882,0,0,1,1.006-.277,1.821,1.821,0,0,1,1.44.592m-.637,2.67a1.526,1.526,0,0,0,.38-1.076,1.542,1.542,0,0,0-.385-1.089,1.3,1.3,0,0,0-1.005-.418,1.354,1.354,0,0,0-.712.19,1.319,1.319,0,0,0-.493.534,1.688,1.688,0,0,0-.178.783,1.646,1.646,0,0,0,.178.77,1.319,1.319,0,0,0,.5.53,1.415,1.415,0,0,0,.729.19,1.279,1.279,0,0,0,.985-.414" fill="#fff"/>
      <path id="Path_49210" data-name="Path 49210" d="M162.946,121.288a1.714,1.714,0,0,1-.753-.567l.356-.5a1.668,1.668,0,0,0,.646.468,2.145,2.145,0,0,0,.852.169,1.149,1.149,0,0,0,.675-.169.53.53,0,0,0,.236-.451.448.448,0,0,0-.162-.36,1.242,1.242,0,0,0-.525-.22l-.812-.2a1.655,1.655,0,0,1-.836-.41.977.977,0,0,1-.265-.7,1.1,1.1,0,0,1,.443-.919,1.964,1.964,0,0,1,1.221-.339,2.672,2.672,0,0,1,.982.17,1.516,1.516,0,0,1,.674.484l-.364.505a1.748,1.748,0,0,0-1.3-.522,1.176,1.176,0,0,0-.666.157.506.506,0,0,0-.228.439.434.434,0,0,0,.157.348,1.252,1.252,0,0,0,.522.215l.8.2a1.824,1.824,0,0,1,.869.418.957.957,0,0,1,.265.7,1.133,1.133,0,0,1-.447.944,2,2,0,0,1-1.25.347,2.827,2.827,0,0,1-1.093-.2" fill="#fff"/>
      <path id="Path_49211" data-name="Path 49211" d="M2.685,90.021A.952.952,0,0,0,2,90.3a.918.918,0,0,0-.289.682A.939.939,0,0,0,2,91.673a.965.965,0,0,0,1.377,0,.94.94,0,0,0,.29-.688.919.919,0,0,0-.29-.682.952.952,0,0,0-.688-.282" fill="#fff"/>
      <path id="Path_49212" data-name="Path 49212" d="M5.233,90.021a.954.954,0,0,0-.689.282.921.921,0,0,0-.289.682.974.974,0,0,0,1.666.688.94.94,0,0,0,.29-.688.919.919,0,0,0-.29-.682.952.952,0,0,0-.688-.282" fill="#fff"/>
      <path id="Path_49213" data-name="Path 49213" d="M39.9,79.019a.954.954,0,0,0,.689-.282.933.933,0,0,0,.289-.7.916.916,0,0,0-.289-.681.981.981,0,0,0-1.377,0,.916.916,0,0,0-.29.681.934.934,0,0,0,.29.7.952.952,0,0,0,.688.282" fill="#fff"/>
      <path id="Path_49214" data-name="Path 49214" d="M58.669,79.591a3.687,3.687,0,0,0-1.8-.462,4.01,4.01,0,0,0-1.129.179l-3.415,1.033V76.2H50.668v7.945h-8.9a1.01,1.01,0,0,1-.689-.268,1.061,1.061,0,0,1-.358-.668V80.493H39.052v2.7a.922.922,0,0,1-.276.668.9.9,0,0,1-.674.282h-.468c-.033,0-.065,0-.1,0v0H13.46a.343.343,0,0,1-.343-.345l.021-4.666H9.366a2.272,2.272,0,0,0-1.16.305,2.3,2.3,0,0,0-.96,1.059,2.186,2.186,0,0,0-.182.918v5.042a.509.509,0,0,1-.153.374.49.49,0,0,1-.356.152h-2.6A1.952,1.952,0,0,1,2.935,86.7a2.153,2.153,0,0,1-.834-.919,1.888,1.888,0,0,1-.19-.843V82.392H.22v2.523a3.6,3.6,0,0,0,.5,1.855,3.682,3.682,0,0,0,1.363,1.357,3.633,3.633,0,0,0,1.866.5H7.466a1.231,1.231,0,0,0,.9-.379,1.257,1.257,0,0,0,.379-.928v-5.95a.532.532,0,0,1,.186-.407.623.623,0,0,1,.436-.17h2.1l-.026,3.259a1.739,1.739,0,0,0,1.739,1.753H37.537v0c.032,0,.064,0,.1,0h.661a2.212,2.212,0,0,0,.922-.2,2.473,2.473,0,0,0,.771-.544,2.581,2.581,0,0,0,.806.544,2.418,2.418,0,0,0,.971.2H59.1a1.388,1.388,0,0,0,1.377-1.377V82.71a3.429,3.429,0,0,0-.51-1.859,3.25,3.25,0,0,0-1.294-1.26m.151,4.22a.33.33,0,0,1-.09.234.3.3,0,0,1-.226.1H52.321V82.062l3.91-1.184a2.777,2.777,0,0,1,.648-.1,2.017,2.017,0,0,1,.971.242,1.679,1.679,0,0,1,.681.654,1.924,1.924,0,0,1,.289,1.033Z" fill="#fff"/>
      <path id="Path_49215" data-name="Path 49215" d="M79.282,83.549a.587.587,0,0,1-.592.592H68.2V79.129H65.085a3.281,3.281,0,0,0-3.305,3.305,3.374,3.374,0,0,0,1.639,2.919,3.174,3.174,0,0,0,1.666.454h1.391l-.014.166a1.371,1.371,0,0,1-.4.8,2.382,2.382,0,0,1-1.177.578,10.084,10.084,0,0,1-1.879.139h-.455V89.14a18.171,18.171,0,0,0,2.107-.076,4.945,4.945,0,0,0,1.4-.344,3.768,3.768,0,0,0,1.1-.737,3.091,3.091,0,0,0,1.019-2.176H78.7a2.185,2.185,0,0,0,1.122-.3,2.251,2.251,0,0,0,.82-.827,2.224,2.224,0,0,0,.3-1.129V76.2H79.282Zm-12.765.592H65.085a1.575,1.575,0,0,1-1.171-.495,1.675,1.675,0,0,1-.481-1.212,1.575,1.575,0,0,1,.475-1.171,1.61,1.61,0,0,1,1.177-.468h1.432Z" fill="#fff"/>
      <rect id="Rectangle_3597" data-name="Rectangle 3597" width="1.666" height="9.639" transform="translate(83.289 76.168)" fill="#fff"/>
      <path id="Path_49216" data-name="Path 49216" d="M91.827,77.931a.987.987,0,0,0,.978-.978.915.915,0,0,0-.289-.681.979.979,0,0,0-1.377,0,.916.916,0,0,0-.29.681.989.989,0,0,0,.978.978" fill="#fff"/>
      <path id="Path_49217" data-name="Path 49217" d="M129,79.583a3.558,3.558,0,0,0-1.811-.482h-2.575l2.2-3.057-1.363-.964-2.782,3.87,1.226,1.831h3.181a2.052,2.052,0,0,1,1.026.268,1.984,1.984,0,0,1,.75.744,2.036,2.036,0,0,1,.276,1.04V83.8a.346.346,0,0,1-.1.241.323.323,0,0,1-.248.1H93.837a1.175,1.175,0,0,1-1.156-1.157V79.156H91.028v6.321a2.143,2.143,0,0,1-.227,1.06,1.5,1.5,0,0,1-.675.613,5.281,5.281,0,0,1-1.232.364l.606,1.571a4.209,4.209,0,0,0,2.223-1.075,3.2,3.2,0,0,0,.93-2.148l.014-.454a1.773,1.773,0,0,0,1.17.4h35.914a1,1,0,0,0,.744-.31,1.014,1.014,0,0,0,.3-.736V82.723a3.585,3.585,0,0,0-.482-1.825A3.546,3.546,0,0,0,129,79.583" fill="#fff"/>
      <path id="Path_49218" data-name="Path 49218" d="M159.839,83.549a.573.573,0,0,1-.173.421.566.566,0,0,1-.419.171h-5.385a.615.615,0,0,1-.461-.192.649.649,0,0,1-.186-.468V82.255a3,3,0,0,0-.462-1.569,3.3,3.3,0,0,0-1.184-1.137,3.155,3.155,0,0,0-1.59-.419h-3.387v4.24a.761.761,0,0,1-.207.565.743.743,0,0,1-.551.206h-9.46a1.175,1.175,0,0,1-1.156-1.156V79.157h-1.653v6.321a1.685,1.685,0,0,1-.544,1.383,3.577,3.577,0,0,1-1.59.654l.606,1.57a4.208,4.208,0,0,0,2.223-1.074,3.212,3.212,0,0,0,.93-2.148l.014-.454a1.881,1.881,0,0,0,1.17.4h9.46a2.179,2.179,0,0,0,1.033-.255,2.234,2.234,0,0,0,.8-.709,2.99,2.99,0,0,0,2.314.964,2.831,2.831,0,0,0,1.191-.255,2.908,2.908,0,0,0,.957-.695,1.961,1.961,0,0,0,.723.688,2.009,2.009,0,0,0,1.012.262h5.4a2.177,2.177,0,0,0,1.122-.3,2.271,2.271,0,0,0,1.123-1.956V76.2h-1.666Zm-8.3-.991a1.51,1.51,0,0,1-.468,1.129,1.7,1.7,0,0,1-1.24.454,1.525,1.525,0,0,1-1.087-.447,1.426,1.426,0,0,1-.469-1.067V80.795h1.556a1.766,1.766,0,0,1,1.212.414,1.453,1.453,0,0,1,.5,1.074Z" fill="#fff"/>
      <rect id="Rectangle_3598" data-name="Rectangle 3598" width="1.666" height="9.639" transform="translate(163.846 76.168)" fill="#fff"/>
      <path id="Path_49219" data-name="Path 49219" d="M96.2,99.223a.954.954,0,0,0,.689-.282.936.936,0,0,0,.289-.7.915.915,0,0,0-.289-.681.981.981,0,0,0-1.377,0,.916.916,0,0,0-.29.681.937.937,0,0,0,.29.7.952.952,0,0,0,.688.282" fill="#fff"/>
      <path id="Path_49220" data-name="Path 49220" d="M93.65,99.223a.967.967,0,0,0,.7-.282.936.936,0,0,0,.289-.7.915.915,0,0,0-.289-.681.963.963,0,0,0-.7-.282.933.933,0,0,0-.675.282.915.915,0,0,0-.289.681.949.949,0,0,0,.282.7.93.93,0,0,0,.682.282" fill="#fff"/>
      <path id="Path_49221" data-name="Path 49221" d="M98.483,103.973a.3.3,0,0,1-.317.316H92.521a1.22,1.22,0,0,1-.889-.357,1.189,1.189,0,0,1-.365-.881v-2.328h-1.68v2.328a2.811,2.811,0,0,0,.393,1.452,2.916,2.916,0,0,0,1.067,1.06,2.877,2.877,0,0,0,1.474.393h6.086a1.554,1.554,0,0,0,1.556-1.542V99.305h-1.68Z" fill="#fff"/>
      <path id="Path_49222" data-name="Path 49222" d="M129.551,99.732a3.558,3.558,0,0,0-1.811-.482h-2.575l2.2-3.057L126,95.229l-2.781,3.87,1.225,1.831h3.181a2.062,2.062,0,0,1,1.026.268,1.984,1.984,0,0,1,.75.744,2.036,2.036,0,0,1,.276,1.04v.964a.346.346,0,0,1-.1.241.323.323,0,0,1-.248.1H104.39a.587.587,0,0,1-.592-.592V96.331h-1.667V103.7a2.257,2.257,0,0,0,2.259,2.258H130.3a1,1,0,0,0,.744-.31,1.014,1.014,0,0,0,.3-.736v-2.038a3.585,3.585,0,0,0-.482-1.825,3.546,3.546,0,0,0-1.315-1.315" fill="#fff"/>
      <rect id="Rectangle_3599" data-name="Rectangle 3599" width="1.666" height="9.639" transform="translate(133.317 96.317)" fill="#fff"/>
      <path id="Path_49223" data-name="Path 49223" d="M150.351,99.223a.952.952,0,0,0,.688-.282.937.937,0,0,0,.29-.7.916.916,0,0,0-.29-.681.981.981,0,0,0-1.377,0,.915.915,0,0,0-.289.681.936.936,0,0,0,.289.7.952.952,0,0,0,.689.282" fill="#fff"/>
      <path id="Path_49224" data-name="Path 49224" d="M152,98.245a.936.936,0,0,0,.289.695.979.979,0,0,0,1.377,0,.932.932,0,0,0,.289-.695.919.919,0,0,0-.289-.682.981.981,0,0,0-1.377,0,.923.923,0,0,0-.289.682" fill="#fff"/>
      <path id="Path_49225" data-name="Path 49225" d="M151.645,96.84a.987.987,0,0,0,.978-.978.916.916,0,0,0-.289-.681.981.981,0,0,0-1.377,0,.913.913,0,0,0-.29.681.989.989,0,0,0,.978.978" fill="#fff"/>
      <path id="Path_49226" data-name="Path 49226" d="M163.846,96.345V103.7a.587.587,0,0,1-.592.592h-.992a1.026,1.026,0,0,1-.7-.268,1,1,0,0,1-.344-.668V96.345h-1.68v6.995a.925.925,0,0,1-.275.668.894.894,0,0,1-.662.282h-.33a1.133,1.133,0,0,0-.177.014h-.484A.588.588,0,0,1,157,103.7V99.292H155.35v3.773a1.17,1.17,0,0,1-.358.881,1.312,1.312,0,0,1-.95.344,1.29,1.29,0,0,1-.923-.323,1.107,1.107,0,0,1-.344-.847v-2.478h-1.666v2.423a1.194,1.194,0,0,1-.358.888,1.3,1.3,0,0,1-.951.351,1.332,1.332,0,0,1-.929-.33,1.1,1.1,0,0,1-.365-.854v-2.478h-1.639V103.7a.592.592,0,0,1-.172.427.563.563,0,0,1-.42.179h-.44v-.014h-4.9a1.175,1.175,0,0,1-1.157-1.156V99.306h-1.653v6.32a1.688,1.688,0,0,1-.544,1.384,3.583,3.583,0,0,1-1.59.654l.606,1.57a4.215,4.215,0,0,0,2.224-1.074,3.206,3.206,0,0,0,.929-2.148l.014-.455a1.879,1.879,0,0,0,1.171.4h5.342a1.922,1.922,0,0,0,.888-.207,2.12,2.12,0,0,0,.7-.564,2.3,2.3,0,0,0,.847.578,2.684,2.684,0,0,0,1,.193,3.2,3.2,0,0,0,1.267-.235,2.654,2.654,0,0,0,.978-.729,2.37,2.37,0,0,0,.867.709,2.768,2.768,0,0,0,1.226.255,2.829,2.829,0,0,0,1.074-.207,2.619,2.619,0,0,0,.881-.578,1.991,1.991,0,0,0,.7.571,2.012,2.012,0,0,0,.909.214h1.17a2.246,2.246,0,0,0,.937-.2,2.326,2.326,0,0,0,.757-.544,2.762,2.762,0,0,0,.819.544,2.425,2.425,0,0,0,.971.2h1.005a2.177,2.177,0,0,0,1.122-.3,2.27,2.27,0,0,0,1.123-1.956V96.345Z" fill="#fff"/>
      <path id="Path_49227" data-name="Path 49227" d="M20.779,107.1a.954.954,0,0,0-.689.282.919.919,0,0,0-.289.682.932.932,0,0,0,.289.695.981.981,0,0,0,1.377,0,.933.933,0,0,0,.29-.695.92.92,0,0,0-.29-.682.952.952,0,0,0-.688-.282" fill="#fff"/>
      <path id="Path_49228" data-name="Path 49228" d="M18.2,107.1a.988.988,0,0,0-.965.964.945.945,0,0,0,.282.695.927.927,0,0,0,.683.282.964.964,0,0,0,.7-.282.932.932,0,0,0,.289-.695.919.919,0,0,0-.289-.682.968.968,0,0,0-.7-.282" fill="#fff"/>
      <path id="Path_49229" data-name="Path 49229" d="M26.7,107.058a.951.951,0,0,0-.689.283.919.919,0,0,0-.289.681.978.978,0,0,0,1.956,0,.916.916,0,0,0-.29-.681.949.949,0,0,0-.688-.283" fill="#fff"/>
      <path id="Path_49230" data-name="Path 49230" d="M32.4,107.1a.988.988,0,0,0-.964.964.945.945,0,0,0,.282.695.926.926,0,0,0,.682.282.965.965,0,0,0,.7-.282.932.932,0,0,0,.289-.695.919.919,0,0,0-.289-.682.969.969,0,0,0-.7-.282" fill="#fff"/>
      <path id="Path_49231" data-name="Path 49231" d="M34.976,107.1a.954.954,0,0,0-.689.282.919.919,0,0,0-.289.682.932.932,0,0,0,.289.695.981.981,0,0,0,1.377,0,.933.933,0,0,0,.29-.695.92.92,0,0,0-.29-.682.952.952,0,0,0-.688-.282" fill="#fff"/>
      <path id="Path_49232" data-name="Path 49232" d="M40.8,96.138a.949.949,0,0,0-.688.283.916.916,0,0,0-.29.681.978.978,0,0,0,1.956,0,.916.916,0,0,0-.289-.681.951.951,0,0,0-.689-.283" fill="#fff"/>
      <path id="Path_49233" data-name="Path 49233" d="M39.052,103.671a.6.6,0,0,1-.179.44.615.615,0,0,1-.455.179H35.664a1.026,1.026,0,0,1-.7-.268,1,1,0,0,1-.344-.668v-2.919h-1.68v2.9a.922.922,0,0,1-.276.668.89.89,0,0,1-.66.282H30.17a.546.546,0,0,1-.433-.179.7.7,0,0,1-.159-.481v-.358a4.075,4.075,0,0,0-.406-1.915,3.468,3.468,0,0,0-1.012-1.212,4.539,4.539,0,0,0-2.768-.853,5.755,5.755,0,0,0-2.355.482l.606,1.5a5.8,5.8,0,0,1,1.818-.331,2.712,2.712,0,0,1,1.707.51,2.239,2.239,0,0,1,.785,1.914v.275a.731.731,0,0,0,.1.379.785.785,0,0,0,.256.268H21.468a1.022,1.022,0,0,1-.7-.268,1,1,0,0,1-.344-.668v-2.919H18.741v2.9a.921.921,0,0,1-.275.668.892.892,0,0,1-.661.282H7.34a.75.75,0,0,1-.565-.2.768.768,0,0,1-.193-.558l-.013-4.255H3.263a3.453,3.453,0,0,0-1.665.4A2.965,2.965,0,0,0,.427,100.8,3.175,3.175,0,0,0,0,102.445v.358a2.933,2.933,0,0,0,.448,1.577,3.3,3.3,0,0,0,1.2,1.15,3.211,3.211,0,0,0,1.617.427,3,3,0,0,0,2.231-.978,2.274,2.274,0,0,0,.806.716,2.173,2.173,0,0,0,1.04.262H17.984a2.245,2.245,0,0,0,.936-.2,2.319,2.319,0,0,0,.758-.544,2.75,2.75,0,0,0,.819.544,2.418,2.418,0,0,0,.971.2H32.181a2.245,2.245,0,0,0,.936-.2,2.315,2.315,0,0,0,.757-.544,2.754,2.754,0,0,0,.82.544,2.414,2.414,0,0,0,.97.2h2.754a2.245,2.245,0,0,0,1.15-.31,2.321,2.321,0,0,0,.84-.833,2.2,2.2,0,0,0,.31-1.143V99.278H39.052ZM4.916,102.652a1.58,1.58,0,0,1-.482,1.157,1.6,1.6,0,0,1-1.171.481,1.608,1.608,0,0,1-1.142-.454,1.456,1.456,0,0,1-.482-1.1v-.289a1.374,1.374,0,0,1,.482-1.1,1.641,1.641,0,0,1,1.142-.4l1.653.028Z" fill="#fff"/>
      <path id="Path_49234" data-name="Path 49234" d="M38.253,98.08a.987.987,0,0,0,.978-.978.916.916,0,0,0-.289-.681.979.979,0,0,0-1.377,0,.916.916,0,0,0-.29.681.989.989,0,0,0,.978.978" fill="#fff"/>
      <rect id="Rectangle_3600" data-name="Rectangle 3600" width="1.666" height="9.639" transform="translate(43.527 96.317)" fill="#fff"/>
      <path id="Path_49235" data-name="Path 49235" d="M59.845,99.209a.985.985,0,0,0,.977-.978.915.915,0,0,0-.288-.681.983.983,0,0,0-1.378,0,.919.919,0,0,0-.289.681.987.987,0,0,0,.978.978" fill="#fff"/>
      <path id="Path_49236" data-name="Path 49236" d="M57.311,99.209a.989.989,0,0,0,.978-.978A.916.916,0,0,0,58,97.55a.981.981,0,0,0-1.377,0,.915.915,0,0,0-.289.681.987.987,0,0,0,.978.978" fill="#fff"/>
      <path id="Path_49237" data-name="Path 49237" d="M70.957,103.092a1.153,1.153,0,0,1-.345.861,1.277,1.277,0,0,1-.936.337,1.264,1.264,0,0,1-.9-.316,1.082,1.082,0,0,1-.337-.827v-2.506H66.785v2.451a1.155,1.155,0,0,1-.358.868,1.313,1.313,0,0,1-.951.344,1.28,1.28,0,0,1-.9-.324,1.083,1.083,0,0,1-.35-.833v-2.506H62.585v3.085a.589.589,0,0,1-.578.578H61.35a.879.879,0,0,0-.156-.014H60.52a1.009,1.009,0,0,1-.689-.268,1.057,1.057,0,0,1-.358-.668v-2.74H57.807v2.726a.926.926,0,0,1-.275.668.908.908,0,0,1-.675.282H51.142a1.175,1.175,0,0,1-1.156-1.157V99.305H48.333v6.321a1.689,1.689,0,0,1-.544,1.384,3.588,3.588,0,0,1-1.59.654l.606,1.57a4.216,4.216,0,0,0,2.223-1.074,3.207,3.207,0,0,0,.93-2.148l.014-.455a1.881,1.881,0,0,0,1.17.4h5.907a2.212,2.212,0,0,0,.923-.2,2.473,2.473,0,0,0,.771-.544,2.581,2.581,0,0,0,.806.544,2.418,2.418,0,0,0,.971.2h1.487a1.909,1.909,0,0,0,.874-.206,2.072,2.072,0,0,0,.681-.551,2.6,2.6,0,0,0,.827.558,2.5,2.5,0,0,0,.991.2,3.251,3.251,0,0,0,1.253-.227,2.641,2.641,0,0,0,.978-.709,2.466,2.466,0,0,0,2.065.936,3,3,0,0,0,1.474-.371,2.791,2.791,0,0,0,1.459-2.493V99.305H70.957Z" fill="#fff"/>
      <path id="Path_49238" data-name="Path 49238" d="M79.591,103.7a.587.587,0,0,1-.592.592H77.746V98.218H76.08l.013,6.072H74.014v1.666h5a2.191,2.191,0,0,0,1.122-.3,2.246,2.246,0,0,0,.819-.826,2.221,2.221,0,0,0,.3-1.13V96.345H79.591Z" fill="#fff"/>
      <rect id="Rectangle_3601" data-name="Rectangle 3601" width="1.666" height="9.639" transform="translate(83.295 96.317)" fill="#fff"/>
      <path id="Path_49239" data-name="Path 49239" d="M2.685,98.094a.954.954,0,0,0,.689-.282.936.936,0,0,0,.289-.7.919.919,0,0,0-.289-.682.981.981,0,0,0-1.377,0,.92.92,0,0,0-.29.682.937.937,0,0,0,.29.7.952.952,0,0,0,.688.282" fill="#fff"/>
      <path id="Path_49240" data-name="Path 49240" d="M5.219,98.094a.969.969,0,0,0,.7-.282.936.936,0,0,0,.289-.7.919.919,0,0,0-.289-.682.969.969,0,0,0-.7-.282.937.937,0,0,0-.675.282.919.919,0,0,0-.289.682.949.949,0,0,0,.282.7.929.929,0,0,0,.682.282" fill="#fff"/>
      <g id="Group_14297" data-name="Group 14297" opacity="0.65">
        <g id="Group_14296" data-name="Group 14296">
          <g id="Group_14295" data-name="Group 14295" clip-path="url(#clip-path-2)">
            <g id="Group_14294" data-name="Group 14294">
              <g id="Group_14293" data-name="Group 14293" clip-path="url(#clip-path-3)">
                <path id="Path_49241" data-name="Path 49241" d="M81.337,32.815l-5.9,1.56a32.362,32.362,0,0,1,5.733-6.057q-.018,2.25.168,4.5" fill="#fff"/>
                <path id="Path_49242" data-name="Path 49242" d="M90.427,34.362l-5.85-1.546q.177-2.121.171-4.251a31.953,31.953,0,0,1,5.679,5.8" fill="#fff"/>
                <path id="Path_49243" data-name="Path 49243" d="M78.5,27c-2.3,2.573-4.023,5.076-4.235,7.681L57.712,39.058l-.724.191-.029.008L46.31,42.071l-8.387,2.216a1.983,1.983,0,0,1-2.261-1.963V18.245a1.982,1.982,0,0,1,2.261-1.962L46.31,18.5l10.649,2.814L72.4,25.394a5.153,5.153,0,0,0-1.64,4.414c.389-1.086,4.07-3.138,6.862-3.034h0Z" fill="#fff"/>
                <path id="Path_49244" data-name="Path 49244" d="M130.247,18.245V42.324a1.983,1.983,0,0,1-2.261,1.963L119.6,42.07,108.95,39.257h0l-.041-.011-.009,0L91.664,34.689c-.168-2.6-1.8-5.069-4.259-7.683l.3-.08a10.389,10.389,0,0,1,7.437,2.882A5.139,5.139,0,0,0,93.49,25.4l15.46-4.085L119.6,18.5l8.388-2.216a1.981,1.981,0,0,1,2.261,1.962" fill="#fff"/>
                <path id="Path_49245" data-name="Path 49245" d="M79.5,47.323l.012.008-.534.354Z" fill="#fff"/>
                <path id="Path_49246" data-name="Path 49246" d="M56.959,39.245c.25-.065.5-.128.753-.187l-.724.191-.029,0" fill="#fff"/>
              </g>
            </g>
          </g>
        </g>
      </g>
      <g id="Group_14302" data-name="Group 14302" opacity="0.8">
        <g id="Group_14301" data-name="Group 14301">
          <g id="Group_14300" data-name="Group 14300" clip-path="url(#clip-path-4)">
            <g id="Group_14299" data-name="Group 14299">
              <g id="Group_14298" data-name="Group 14298" clip-path="url(#clip-path-5)">
                <path id="Path_49247" data-name="Path 49247" d="M57.712,39.058l-.724.191A52.185,52.185,0,0,1,69.25,42.176q1.2.444,2.377.949L56.959,50.612,48.945,54.7a1.983,1.983,0,0,1-2.635-1.872V7.739a1.982,1.982,0,0,1,2.635-1.872l8.014,4.091,16.047,8.191c2.561,2.032,3.43,2.821,5.258,4.314A12.068,12.068,0,0,0,72.4,25.394a5.156,5.156,0,0,0-1.641,4.414c.39-1.086,4.071-3.138,6.863-3.033h0a4.364,4.364,0,0,1,.953.134L78.5,27c-2.3,2.573-4.023,5.077-4.235,7.681a6.487,6.487,0,0,0,.073,1.654,15,15,0,0,1,1.1-1.964,32.362,32.362,0,0,1,5.733-6.057q-.018,2.25.168,4.5a48.579,48.579,0,0,0,.679,5.008l-5.882,3a28.806,28.806,0,0,0-18.422-1.766" fill="#fff"/>
                <path id="Path_49248" data-name="Path 49248" d="M119.6,7.739V52.831a1.983,1.983,0,0,1-2.635,1.872l-8.014-4.091L94.27,43.119a52.165,52.165,0,0,1,14.674-3.861h.006l-.042-.011-.009,0a28.8,28.8,0,0,0-19.144,1.571l-5.86-2.991a48.333,48.333,0,0,0,.682-5.007q.178-2.121.172-4.252a31.986,31.986,0,0,1,5.678,5.8,14.444,14.444,0,0,1,1.147,1.976,6.859,6.859,0,0,0,.091-1.649c-.169-2.6-1.8-5.07-4.26-7.684l-.087-.092c.13,0,.259.007.39.012a10.393,10.393,0,0,1,7.437,2.883A5.142,5.142,0,0,0,93.49,25.4a12.4,12.4,0,0,0-6.111-2.984c3.228-2.344,3.74-2.626,6.543-4.786h0l15.027-7.67,8.014-4.091A1.982,1.982,0,0,1,119.6,7.739" fill="#fff"/>
              </g>
            </g>
          </g>
        </g>
      </g>
      <g id="Group_14307" data-name="Group 14307" opacity="0.85">
        <g id="Group_14306" data-name="Group 14306">
          <g id="Group_14305" data-name="Group 14305" clip-path="url(#clip-path-6)">
            <g id="Group_14304" data-name="Group 14304">
              <g id="Group_14303" data-name="Group 14303" clip-path="url(#clip-path-7)">
                <path id="Path_49249" data-name="Path 49249" d="M77.628,26.774,78.5,27l.085-.1a4.364,4.364,0,0,0-.953-.134m0,0L78.5,27l.085-.1a4.364,4.364,0,0,0-.953-.134m0,0L78.5,27l.085-.1a4.364,4.364,0,0,0-.953-.134M106.195.159,82.954,15.511,59.715.159a1.982,1.982,0,0,0-2.756,1.825v56.6a1.983,1.983,0,0,0,2.756,1.826L78.977,47.685h0l.535-.353-.012-.008a52.184,52.184,0,0,0-7.874-4.2q-1.176-.506-2.377-.95a52.232,52.232,0,0,0-12.262-2.926l.724-.191a28.8,28.8,0,0,1,23,4.353l2.218,1.536,2.217-1.536A28.812,28.812,0,0,1,108.9,39.243l.009,0,.041.011h-.006a52.224,52.224,0,0,0-22.567,8.061L106.195,60.41a1.982,1.982,0,0,0,2.755-1.826V1.984A1.982,1.982,0,0,0,106.195.159M93.922,17.627c-2.8,2.16-3.315,2.443-6.543,4.786A12.414,12.414,0,0,1,93.49,25.4a5.137,5.137,0,0,1,1.654,4.41,10.388,10.388,0,0,0-7.436-2.882l-.39-.013q.045.047.087.093c2.459,2.613,4.091,5.083,4.26,7.683a6.911,6.911,0,0,1-.091,1.649,14.565,14.565,0,0,0-1.147-1.976,31.98,31.98,0,0,0-5.678-5.8q.006,2.128-.172,4.251a48.3,48.3,0,0,1-.682,5.007q-.384,2.019-.94,4-.558-1.983-.939-4a48.6,48.6,0,0,1-.679-5.007q-.186-2.244-.168-4.5a32.423,32.423,0,0,0-5.733,6.057,14.939,14.939,0,0,0-1.1,1.964,6.482,6.482,0,0,1-.074-1.653C74.473,32.08,76.2,29.577,78.5,27l.085-.1a4.364,4.364,0,0,0-.953-.134c-2.793-.1-6.474,1.947-6.863,3.034a5.15,5.15,0,0,1,1.64-4.414,12.074,12.074,0,0,1,5.859-2.932c-1.828-1.492-2.7-2.281-5.257-4.314h0L73,18.142c2.667-.483,5.441,1.587,8.67,3.556a48.9,48.9,0,0,1,1.287-6.169A48.8,48.8,0,0,1,84.2,21.48c3.195-1.906,6.97-4.412,9.72-3.853h0M77.628,26.774,78.5,27l.085-.1a4.364,4.364,0,0,0-.953-.134m0,0L78.5,27l.085-.1a4.364,4.364,0,0,0-.953-.134m0,0L78.5,27l.085-.1a4.364,4.364,0,0,0-.953-.134" fill="#fff"/>
              </g>
            </g>
          </g>
        </g>
      </g>
    </g>
  </g>
</svg>
