<svg id="Logo" xmlns="http://www.w3.org/2000/svg" xmlns:xlink="http://www.w3.org/1999/xlink" width="304.346" height="65.68" viewBox="0 0 304.346 65.68">
  <defs>
    <clipPath id="clip-path">
      <rect id="Rectangle_13810" data-name="Rectangle 13810" width="102.567" height="34.073" transform="translate(201.779 17.635)" fill="none"/>
    </clipPath>
    <clipPath id="clip-path-3">
      <rect id="Rectangle_13812" data-name="Rectangle 13812" width="79.472" height="53.2" transform="translate(213.327 6.24)" fill="none"/>
    </clipPath>
    <clipPath id="clip-path-4">
      <rect id="Rectangle_13811" data-name="Rectangle 13811" width="79.473" height="53.199" transform="translate(213.327 6.241)" fill="none"/>
    </clipPath>
    <clipPath id="clip-path-5">
      <rect id="Rectangle_13814" data-name="Rectangle 13814" width="56.379" height="65.68" transform="translate(224.874)" fill="none"/>
    </clipPath>
    <clipPath id="clip-path-6">
      <rect id="Rectangle_13813" data-name="Rectangle 13813" width="56.379" height="65.68" transform="translate(224.874 0)" fill="none"/>
    </clipPath>
  </defs>
  <path id="Path_107322" data-name="Path 107322" d="M10.234,56.46a1.344,1.344,0,0,1-.593.71,1.981,1.981,0,0,1-1.041.26,1.692,1.692,0,0,1-1.185-.386,1.317,1.317,0,0,1-.422-1.024,1.158,1.158,0,0,1,.561-1.045,2.909,2.909,0,0,1,1.557-.355,7.146,7.146,0,0,1,1.024.081l-.009-.332a.872.872,0,0,0-.3-.718,1.2,1.2,0,0,0-.789-.243,1.7,1.7,0,0,0-.741.166,1.579,1.579,0,0,0-.579.471l-.458-.466a2.207,2.207,0,0,1,.813-.624A2.493,2.493,0,0,1,9.1,52.744a2.042,2.042,0,0,1,.966.22,1.571,1.571,0,0,1,.646.615,1.768,1.768,0,0,1,.229.906V57.34h-.709Zm-.988-1.346a2.11,2.11,0,0,0-1.059.22.7.7,0,0,0-.377.642.783.783,0,0,0,.246.615,1.09,1.09,0,0,0,.741.22,1.356,1.356,0,0,0,.979-.346,1.277,1.277,0,0,0,.359-.965v-.305a5.44,5.44,0,0,0-.889-.081" fill="#fff"/>
  <path id="Path_107323" data-name="Path 107323" d="M12.59,57.1a.784.784,0,0,1-.238-.578l.009-2.936h-.916v-.745h.916v-1.4h.826v1.4h1.382v.745H13.187V56.46a.123.123,0,0,0,.126.126h1.265v.754H13.16a.776.776,0,0,1-.57-.238" fill="#fff"/>
  <path id="Path_107324" data-name="Path 107324" d="M15.67,51.716a.519.519,0,0,1-.157-.381.509.509,0,0,1,.157-.373.517.517,0,0,1,.381-.157.492.492,0,0,1,.368.157.517.517,0,0,1,.153.373.527.527,0,0,1-.153.381.492.492,0,0,1-.368.157.517.517,0,0,1-.381-.157m.794,5.624h-.826V52.851h.826Z" fill="#fff"/>
  <path id="Path_107325" data-name="Path 107325" d="M18.744,57.147a2.1,2.1,0,0,1-.835-.839,2.534,2.534,0,0,1-.3-1.239,2.37,2.37,0,0,1,.3-1.2,2.152,2.152,0,0,1,.848-.826,2.545,2.545,0,0,1,1.235-.3,2.487,2.487,0,0,1,1.225.3,2.132,2.132,0,0,1,.835.826,2.388,2.388,0,0,1,.3,1.2,2.458,2.458,0,0,1-.305,1.225,2.186,2.186,0,0,1-.849.849,2.46,2.46,0,0,1-1.225.305,2.493,2.493,0,0,1-1.239-.3m2.038-.637a1.464,1.464,0,0,0,.547-.583,1.9,1.9,0,0,0,0-1.688A1.456,1.456,0,0,0,20,53.445a1.463,1.463,0,0,0-1.114.457,1.854,1.854,0,0,0-.008,2.365,1.435,1.435,0,0,0,1.1.454,1.516,1.516,0,0,0,.8-.211" fill="#fff"/>
  <path id="Path_107326" data-name="Path 107326" d="M26.68,52.968a1.7,1.7,0,0,1,.615.606,1.6,1.6,0,0,1,.229.84V57.34h-.835V54.674a1.159,1.159,0,0,0-.157-.588,1.18,1.18,0,0,0-.43-.435,1.157,1.157,0,0,0-.6-.162,1.126,1.126,0,0,0-.592.162,1.192,1.192,0,0,0-.427.431,1.157,1.157,0,0,0-.157.592V57.34h-.834V52.851h.816v.8a1.575,1.575,0,0,1,.62-.66,1.728,1.728,0,0,1,.906-.247,1.653,1.653,0,0,1,.844.224" fill="#fff"/>
  <path id="Path_107327" data-name="Path 107327" d="M31.842,56.46a1.344,1.344,0,0,1-.593.71,1.981,1.981,0,0,1-1.041.26,1.692,1.692,0,0,1-1.185-.386A1.317,1.317,0,0,1,28.6,56.02a1.158,1.158,0,0,1,.561-1.045,2.909,2.909,0,0,1,1.557-.355,7.146,7.146,0,0,1,1.024.081l-.009-.332a.872.872,0,0,0-.3-.718,1.2,1.2,0,0,0-.789-.243,1.7,1.7,0,0,0-.741.166,1.579,1.579,0,0,0-.579.471l-.458-.466a2.207,2.207,0,0,1,.813-.624,2.493,2.493,0,0,1,1.027-.211,2.042,2.042,0,0,1,.966.22,1.571,1.571,0,0,1,.646.615,1.768,1.768,0,0,1,.229.906V57.34h-.709Zm-.988-1.346a2.11,2.11,0,0,0-1.059.22.7.7,0,0,0-.377.642.783.783,0,0,0,.246.615,1.09,1.09,0,0,0,.741.22,1.356,1.356,0,0,0,.979-.346,1.277,1.277,0,0,0,.359-.965v-.305a5.43,5.43,0,0,0-.889-.081" fill="#fff"/>
  <rect id="Rectangle_13803" data-name="Rectangle 13803" width="0.835" height="6.284" transform="translate(33.654 51.056)" fill="#fff"/>
  <path id="Path_107328" data-name="Path 107328" d="M39.252,57.031a2.883,2.883,0,0,1-1.122-1.167,3.508,3.508,0,0,1-.391-1.665,3.471,3.471,0,0,1,.4-1.665,2.9,2.9,0,0,1,1.126-1.167,3.288,3.288,0,0,1,1.692-.427,3.054,3.054,0,0,1,1.607.422,2.893,2.893,0,0,1,1.095,1.194l-.709.4a2.139,2.139,0,0,0-.795-.88,2.193,2.193,0,0,0-1.2-.332,2.293,2.293,0,0,0-1.211.319,2.138,2.138,0,0,0-.818.88,2.9,2.9,0,0,0,0,2.508,2.131,2.131,0,0,0,.812.876,2.328,2.328,0,0,0,1.221.318,2.261,2.261,0,0,0,1.2-.318,2.092,2.092,0,0,0,.8-.894l.7.423a2.687,2.687,0,0,1-1.077,1.189,3.168,3.168,0,0,1-1.625.408,3.32,3.32,0,0,1-1.7-.426" fill="#fff"/>
  <path id="Path_107329" data-name="Path 107329" d="M45.4,56.043a1.4,1.4,0,0,0,.557.526,1.659,1.659,0,0,0,.794.188,2.069,2.069,0,0,0,.889-.193,1.522,1.522,0,0,0,.637-.525l.476.485a1.928,1.928,0,0,1-.835.678,2.885,2.885,0,0,1-1.2.247,2.506,2.506,0,0,1-1.231-.3,2.078,2.078,0,0,1-.835-.835,2.513,2.513,0,0,1-.3-1.229,2.4,2.4,0,0,1,.3-1.212,2.133,2.133,0,0,1,.83-.826,2.422,2.422,0,0,1,1.2-.3,2.389,2.389,0,0,1,1.229.3,1.824,1.824,0,0,1,.759.871,2.969,2.969,0,0,1,.2,1.351H45.2a1.457,1.457,0,0,0,.2.767m.539-2.477a1.447,1.447,0,0,0-.535.494,1.38,1.38,0,0,0-.215.686h2.873a1.416,1.416,0,0,0-.386-.987,1.316,1.316,0,0,0-.987-.377,1.532,1.532,0,0,0-.75.184" fill="#fff"/>
  <path id="Path_107330" data-name="Path 107330" d="M53.189,52.968a1.7,1.7,0,0,1,.615.606,1.6,1.6,0,0,1,.229.84V57.34H53.2V54.674a1.159,1.159,0,0,0-.157-.588,1.18,1.18,0,0,0-.43-.435,1.155,1.155,0,0,0-.6-.162,1.126,1.126,0,0,0-.592.162,1.192,1.192,0,0,0-.427.431,1.157,1.157,0,0,0-.157.592V57.34H50V52.851h.816v.8a1.575,1.575,0,0,1,.62-.66,1.728,1.728,0,0,1,.906-.247,1.652,1.652,0,0,1,.844.224" fill="#fff"/>
  <path id="Path_107331" data-name="Path 107331" d="M55.994,57.1a.784.784,0,0,1-.238-.578l.009-2.936h-.916v-.745h.916v-1.4h.826v1.4h1.382v.745H56.591V56.46a.123.123,0,0,0,.126.126h1.265v.754H56.564a.776.776,0,0,1-.57-.238" fill="#fff"/>
  <path id="Path_107332" data-name="Path 107332" d="M59.675,56.043a1.4,1.4,0,0,0,.557.526,1.659,1.659,0,0,0,.794.188,2.069,2.069,0,0,0,.889-.193,1.522,1.522,0,0,0,.637-.525l.476.485a1.928,1.928,0,0,1-.835.678,2.885,2.885,0,0,1-1.2.247,2.506,2.506,0,0,1-1.231-.3,2.078,2.078,0,0,1-.835-.835,2.513,2.513,0,0,1-.295-1.229,2.4,2.4,0,0,1,.3-1.212,2.133,2.133,0,0,1,.83-.826,2.422,2.422,0,0,1,1.2-.3,2.389,2.389,0,0,1,1.229.3,1.824,1.824,0,0,1,.759.871,2.969,2.969,0,0,1,.2,1.351H59.473a1.457,1.457,0,0,0,.2.767m.539-2.477a1.447,1.447,0,0,0-.535.494,1.38,1.38,0,0,0-.215.686h2.873a1.416,1.416,0,0,0-.386-.987,1.316,1.316,0,0,0-.987-.377,1.532,1.532,0,0,0-.75.184" fill="#fff"/>
  <path id="Path_107333" data-name="Path 107333" d="M66.987,52.816l-.027.781a5.474,5.474,0,0,0-.547-.027,1.269,1.269,0,0,0-.952.368,1.353,1.353,0,0,0-.359.988V57.34h-.826V52.852h.808V53.7a1.654,1.654,0,0,1,.6-.687,1.568,1.568,0,0,1,.875-.256,1.353,1.353,0,0,1,.431.063" fill="#fff"/>
  <path id="Path_107334" data-name="Path 107334" d="M69.267,52.843h1.015V52.16a1.011,1.011,0,0,1,.341-.812,1.24,1.24,0,0,1,.834-.292h1.006v.728h-.952a.38.38,0,0,0-.287.125.436.436,0,0,0-.116.305v.629h1.328v.745H71.108V57.34h-.826V53.588H69.267Z" fill="#fff"/>
  <path id="Path_107335" data-name="Path 107335" d="M74.024,57.147a2.1,2.1,0,0,1-.835-.839,2.534,2.534,0,0,1-.3-1.239,2.37,2.37,0,0,1,.305-1.2,2.153,2.153,0,0,1,.848-.826,2.545,2.545,0,0,1,1.235-.3,2.487,2.487,0,0,1,1.225.3,2.132,2.132,0,0,1,.835.826,2.388,2.388,0,0,1,.3,1.2,2.458,2.458,0,0,1-.305,1.225,2.186,2.186,0,0,1-.849.849,2.46,2.46,0,0,1-1.225.305,2.493,2.493,0,0,1-1.239-.3m2.039-.637a1.469,1.469,0,0,0,.546-.583,1.9,1.9,0,0,0,0-1.688,1.456,1.456,0,0,0-1.328-.794,1.463,1.463,0,0,0-1.114.457,1.854,1.854,0,0,0-.008,2.365,1.435,1.435,0,0,0,1.1.454,1.52,1.52,0,0,0,.8-.211" fill="#fff"/>
  <path id="Path_107336" data-name="Path 107336" d="M81.484,52.816l-.027.781a5.474,5.474,0,0,0-.547-.027,1.269,1.269,0,0,0-.952.368,1.353,1.353,0,0,0-.359.988V57.34h-.826V52.852h.808V53.7a1.654,1.654,0,0,1,.6-.687,1.568,1.568,0,0,1,.875-.256,1.353,1.353,0,0,1,.431.063" fill="#fff"/>
  <path id="Path_107337" data-name="Path 107337" d="M85.035,57.089a2.278,2.278,0,0,1-.956-1.05l.6-.458a2.038,2.038,0,0,0,1.939,1.095,1.836,1.836,0,0,0,1.087-.283.9.9,0,0,0,.395-.767.759.759,0,0,0-.265-.606,2.2,2.2,0,0,0-.9-.382l-.925-.215a2.909,2.909,0,0,1-1.329-.642,1.417,1.417,0,0,1-.43-1.064,1.638,1.638,0,0,1,.269-.933,1.726,1.726,0,0,1,.781-.625,3.065,3.065,0,0,1,1.212-.22,3.022,3.022,0,0,1,1.436.324,2.06,2.06,0,0,1,.9.88l-.593.466a1.793,1.793,0,0,0-.709-.669,2.212,2.212,0,0,0-1.032-.228,1.749,1.749,0,0,0-1.028.26.845.845,0,0,0-.364.727.724.724,0,0,0,.27.584,2.321,2.321,0,0,0,.942.376l.952.234a2.658,2.658,0,0,1,1.283.628,1.463,1.463,0,0,1,.4,1.069,1.672,1.672,0,0,1-.292.978,1.893,1.893,0,0,1-.829.656,3.155,3.155,0,0,1-1.258.233,3.077,3.077,0,0,1-1.557-.368" fill="#fff"/>
  <path id="Path_107338" data-name="Path 107338" d="M90.664,57.1a.784.784,0,0,1-.238-.578l.009-2.936h-.916v-.745h.916v-1.4h.826v1.4h1.382v.745H91.261V56.46a.123.123,0,0,0,.126.126h1.265v.754H91.234a.776.776,0,0,1-.57-.238" fill="#fff"/>
  <path id="Path_107339" data-name="Path 107339" d="M96.4,52.816l-.027.781c-.179-.018-.363-.027-.548-.027a1.269,1.269,0,0,0-.951.368,1.349,1.349,0,0,0-.359.988V57.34h-.827V52.852H94.5V53.7a1.661,1.661,0,0,1,.6-.687,1.568,1.568,0,0,1,.875-.256,1.36,1.36,0,0,1,.432.063" fill="#fff"/>
  <path id="Path_107340" data-name="Path 107340" d="M100.1,56.46a1.344,1.344,0,0,1-.593.71,1.981,1.981,0,0,1-1.041.26,1.692,1.692,0,0,1-1.185-.386,1.317,1.317,0,0,1-.422-1.024,1.158,1.158,0,0,1,.561-1.045,2.909,2.909,0,0,1,1.557-.355A7.146,7.146,0,0,1,100,54.7l-.009-.332a.872.872,0,0,0-.3-.718,1.2,1.2,0,0,0-.789-.243,1.7,1.7,0,0,0-.741.166,1.579,1.579,0,0,0-.579.471l-.458-.466a2.207,2.207,0,0,1,.813-.624,2.493,2.493,0,0,1,1.027-.211,2.042,2.042,0,0,1,.966.22,1.571,1.571,0,0,1,.646.615,1.768,1.768,0,0,1,.229.906V57.34H100.1Zm-.988-1.346a2.11,2.11,0,0,0-1.059.22.7.7,0,0,0-.377.642.783.783,0,0,0,.246.615,1.09,1.09,0,0,0,.741.22,1.356,1.356,0,0,0,.979-.346A1.277,1.277,0,0,0,100,55.5v-.305a5.431,5.431,0,0,0-.889-.081" fill="#fff"/>
  <path id="Path_107341" data-name="Path 107341" d="M102.451,57.1a.784.784,0,0,1-.238-.578l.009-2.936h-.916v-.745h.916v-1.4h.826v1.4h1.382v.745h-1.382V56.46a.123.123,0,0,0,.126.126h1.265v.754h-1.418a.776.776,0,0,1-.57-.238" fill="#fff"/>
  <path id="Path_107342" data-name="Path 107342" d="M106.131,56.043a1.4,1.4,0,0,0,.557.526,1.659,1.659,0,0,0,.794.188,2.069,2.069,0,0,0,.889-.193,1.522,1.522,0,0,0,.637-.525l.476.485a1.928,1.928,0,0,1-.835.678,2.885,2.885,0,0,1-1.2.247,2.506,2.506,0,0,1-1.231-.3,2.078,2.078,0,0,1-.835-.835,2.513,2.513,0,0,1-.295-1.229,2.4,2.4,0,0,1,.3-1.212,2.133,2.133,0,0,1,.83-.826,2.422,2.422,0,0,1,1.2-.3,2.389,2.389,0,0,1,1.229.3,1.824,1.824,0,0,1,.759.871,2.969,2.969,0,0,1,.2,1.351h-3.681a1.457,1.457,0,0,0,.2.767m.539-2.477a1.447,1.447,0,0,0-.535.494,1.38,1.38,0,0,0-.215.686h2.873a1.416,1.416,0,0,0-.386-.987,1.316,1.316,0,0,0-.987-.377,1.532,1.532,0,0,0-.75.184" fill="#fff"/>
  <path id="Path_107343" data-name="Path 107343" d="M114.834,58.162a2.114,2.114,0,0,1-.825.821,2.423,2.423,0,0,1-1.2.3,2.9,2.9,0,0,1-1.27-.274,2.3,2.3,0,0,1-.893-.723l.4-.574a1.991,1.991,0,0,0,.727.614,2.135,2.135,0,0,0,.987.23,1.665,1.665,0,0,0,.8-.193,1.435,1.435,0,0,0,.575-.571,1.773,1.773,0,0,0,.216-.9v-.673a1.752,1.752,0,0,1-.642.789,1.8,1.8,0,0,1-1.037.3,2.255,2.255,0,0,1-1.163-.292,1.958,1.958,0,0,1-.767-.817,2.6,2.6,0,0,1-.269-1.207,2.506,2.506,0,0,1,.26-1.163,1.929,1.929,0,0,1,.74-.794,2.152,2.152,0,0,1,1.127-.288,2.079,2.079,0,0,1,.875.171,1.81,1.81,0,0,1,.6.418,1.39,1.39,0,0,1,.306.489v-.988h.762v4.139a2.373,2.373,0,0,1-.3,1.189m-1.261-1.737a1.413,1.413,0,0,0,.543-.557,1.674,1.674,0,0,0,.2-.817,1.7,1.7,0,0,0-.207-.857,1.376,1.376,0,0,0-.552-.547,1.566,1.566,0,0,0-.75-.185,1.435,1.435,0,0,0-1.09.44,1.772,1.772,0,0,0,0,2.28,1.408,1.408,0,0,0,1.078.44,1.554,1.554,0,0,0,.785-.2" fill="#fff"/>
  <path id="Path_107344" data-name="Path 107344" d="M116.6,51.716a.522.522,0,0,1-.156-.381.512.512,0,0,1,.156-.373.523.523,0,0,1,.383-.157.491.491,0,0,1,.367.157.513.513,0,0,1,.153.373.523.523,0,0,1-.153.381.491.491,0,0,1-.367.157.523.523,0,0,1-.383-.157m.8,5.624h-.826V52.851h.826Z" fill="#fff"/>
  <path id="Path_107345" data-name="Path 107345" d="M119.656,57.156a2.1,2.1,0,0,1-.813-.844,2.781,2.781,0,0,1,0-2.477,2.133,2.133,0,0,1,.817-.849,2.347,2.347,0,0,1,1.2-.305,2.389,2.389,0,0,1,1.18.287,2.026,2.026,0,0,1,.8.809l-.62.421a1.6,1.6,0,0,0-.57-.565,1.514,1.514,0,0,0-.767-.2,1.4,1.4,0,0,0-1.082.454,1.876,1.876,0,0,0,0,2.361,1.4,1.4,0,0,0,1.082.453,1.5,1.5,0,0,0,.772-.206,1.574,1.574,0,0,0,.565-.575l.62.422a2.03,2.03,0,0,1-.809.821,2.532,2.532,0,0,1-2.378-.009" fill="#fff"/>
  <path id="Path_107346" data-name="Path 107346" d="M129.7,51.322a1.9,1.9,0,0,1,.718.731,2.133,2.133,0,0,1,.261,1.06,2.176,2.176,0,0,1-.261,1.072,1.892,1.892,0,0,1-.718.737,2.013,2.013,0,0,1-1.024.264h-1.813v2.155h-.853V51.056h2.666a2,2,0,0,1,1.024.266m-.256,2.724a1.286,1.286,0,0,0,.346-.933,1.259,1.259,0,0,0-.35-.911,1.159,1.159,0,0,0-.871-.364h-1.706V54.4h1.706a1.165,1.165,0,0,0,.875-.359" fill="#fff"/>
  <path id="Path_107347" data-name="Path 107347" d="M134.575,56.46a1.344,1.344,0,0,1-.593.71,1.981,1.981,0,0,1-1.041.26,1.692,1.692,0,0,1-1.185-.386,1.317,1.317,0,0,1-.422-1.024,1.158,1.158,0,0,1,.561-1.045,2.909,2.909,0,0,1,1.557-.355,7.146,7.146,0,0,1,1.024.081l-.009-.332a.872.872,0,0,0-.3-.718,1.2,1.2,0,0,0-.789-.243,1.7,1.7,0,0,0-.741.166,1.578,1.578,0,0,0-.579.471l-.458-.466a2.207,2.207,0,0,1,.813-.624,2.493,2.493,0,0,1,1.027-.211,2.042,2.042,0,0,1,.966.22,1.571,1.571,0,0,1,.646.615,1.768,1.768,0,0,1,.229.906V57.34h-.709Zm-.988-1.346a2.11,2.11,0,0,0-1.059.22.7.7,0,0,0-.377.642.783.783,0,0,0,.246.615,1.089,1.089,0,0,0,.741.22,1.356,1.356,0,0,0,.979-.346,1.277,1.277,0,0,0,.359-.965v-.305a5.431,5.431,0,0,0-.889-.081" fill="#fff"/>
  <path id="Path_107348" data-name="Path 107348" d="M139.135,52.816l-.027.781a5.474,5.474,0,0,0-.547-.027,1.269,1.269,0,0,0-.952.368,1.353,1.353,0,0,0-.359.988V57.34h-.826V52.852h.808V53.7a1.654,1.654,0,0,1,.6-.687,1.568,1.568,0,0,1,.875-.256,1.353,1.353,0,0,1,.431.063" fill="#fff"/>
  <path id="Path_107349" data-name="Path 107349" d="M140.846,57.1a.784.784,0,0,1-.238-.578l.009-2.936H139.7v-.745h.916v-1.4h.826v1.4h1.382v.745h-1.382V56.46a.123.123,0,0,0,.126.126h1.265v.754h-1.418a.776.776,0,0,1-.57-.238" fill="#fff"/>
  <path id="Path_107350" data-name="Path 107350" d="M147.062,52.968a1.7,1.7,0,0,1,.615.606,1.6,1.6,0,0,1,.229.84V57.34h-.835V54.674a1.159,1.159,0,0,0-.157-.588,1.18,1.18,0,0,0-.43-.435,1.155,1.155,0,0,0-.6-.162,1.126,1.126,0,0,0-.592.162,1.192,1.192,0,0,0-.427.431,1.157,1.157,0,0,0-.157.592V57.34h-.834V52.851h.816v.8a1.575,1.575,0,0,1,.62-.66,1.728,1.728,0,0,1,.906-.247,1.652,1.652,0,0,1,.844.224" fill="#fff"/>
  <path id="Path_107351" data-name="Path 107351" d="M150.02,56.043a1.4,1.4,0,0,0,.557.526,1.659,1.659,0,0,0,.794.188,2.069,2.069,0,0,0,.889-.193,1.522,1.522,0,0,0,.637-.525l.476.485a1.928,1.928,0,0,1-.835.678,2.885,2.885,0,0,1-1.2.247,2.506,2.506,0,0,1-1.231-.3,2.078,2.078,0,0,1-.835-.835,2.513,2.513,0,0,1-.295-1.229,2.4,2.4,0,0,1,.3-1.212,2.133,2.133,0,0,1,.83-.826,2.422,2.422,0,0,1,1.2-.3,2.389,2.389,0,0,1,1.229.3,1.824,1.824,0,0,1,.759.871,2.969,2.969,0,0,1,.2,1.351h-3.681a1.457,1.457,0,0,0,.2.767m.539-2.477a1.447,1.447,0,0,0-.535.494,1.38,1.38,0,0,0-.215.686h2.873a1.416,1.416,0,0,0-.386-.987,1.316,1.316,0,0,0-.987-.377,1.532,1.532,0,0,0-.75.184" fill="#fff"/>
  <path id="Path_107352" data-name="Path 107352" d="M157.332,52.816l-.027.781a5.474,5.474,0,0,0-.547-.027,1.269,1.269,0,0,0-.952.368,1.353,1.353,0,0,0-.359.988V57.34h-.826V52.852h.808V53.7a1.654,1.654,0,0,1,.6-.687,1.568,1.568,0,0,1,.875-.256,1.353,1.353,0,0,1,.431.063" fill="#fff"/>
  <path id="Path_107353" data-name="Path 107353" d="M158.642,57.237a1.872,1.872,0,0,1-.817-.615l.386-.548a1.826,1.826,0,0,0,.7.508,2.338,2.338,0,0,0,.924.184,1.248,1.248,0,0,0,.732-.184.576.576,0,0,0,.256-.489.487.487,0,0,0-.176-.391,1.356,1.356,0,0,0-.57-.238l-.879-.215a1.793,1.793,0,0,1-.907-.444,1.054,1.054,0,0,1-.287-.759,1.189,1.189,0,0,1,.48-1,2.13,2.13,0,0,1,1.324-.368,2.9,2.9,0,0,1,1.064.185,1.641,1.641,0,0,1,.732.525l-.395.547a1.9,1.9,0,0,0-1.41-.565,1.273,1.273,0,0,0-.722.17.547.547,0,0,0-.247.476.47.47,0,0,0,.17.377,1.354,1.354,0,0,0,.565.233l.872.216a1.989,1.989,0,0,1,.942.453,1.037,1.037,0,0,1,.287.759,1.227,1.227,0,0,1-.484,1.023,2.159,2.159,0,0,1-1.356.377,3.055,3.055,0,0,1-1.185-.22" fill="#fff"/>
  <path id="Path_107354" data-name="Path 107354" d="M165.977,52.982a1.607,1.607,0,0,1,.606.6,1.686,1.686,0,0,1,.219.856v2.9h-.825v-2.7a1.16,1.16,0,0,0-.342-.848,1.127,1.127,0,0,0-.834-.345,1.156,1.156,0,0,0-.862.359,1.223,1.223,0,0,0-.35.888V57.34h-.835V51.056h.835v2.523a1.352,1.352,0,0,1,.6-.593,1.936,1.936,0,0,1,.929-.224,1.709,1.709,0,0,1,.862.22" fill="#fff"/>
  <path id="Path_107355" data-name="Path 107355" d="M168.235,51.716a.519.519,0,0,1-.158-.381.51.51,0,0,1,.158-.373.518.518,0,0,1,.382-.157.5.5,0,0,1,.368.157.516.516,0,0,1,.152.373.526.526,0,0,1-.152.381.5.5,0,0,1-.368.157.518.518,0,0,1-.382-.157m.794,5.624H168.2V52.851h.826Z" fill="#fff"/>
  <path id="Path_107356" data-name="Path 107356" d="M174.559,53.385a2.525,2.525,0,0,1,.566,1.729,2.713,2.713,0,0,1-.261,1.211,1.96,1.96,0,0,1-.745.827,2.129,2.129,0,0,1-1.131.3,1.868,1.868,0,0,1-1.1-.328,1.52,1.52,0,0,1-.611-.768V59h-.816V52.852h.754v1a1.669,1.669,0,0,1,.7-.8,2.038,2.038,0,0,1,1.091-.3,1.976,1.976,0,0,1,1.562.641m-.691,2.9a1.657,1.657,0,0,0,.412-1.167,1.677,1.677,0,0,0-.417-1.181,1.414,1.414,0,0,0-1.091-.453,1.469,1.469,0,0,0-.772.206,1.438,1.438,0,0,0-.534.579,1.831,1.831,0,0,0-.193.849,1.781,1.781,0,0,0,.193.835,1.416,1.416,0,0,0,.544.575,1.528,1.528,0,0,0,.789.206,1.389,1.389,0,0,0,1.069-.449" fill="#fff"/>
  <path id="Path_107357" data-name="Path 107357" d="M176.7,57.237a1.872,1.872,0,0,1-.817-.615l.386-.548a1.826,1.826,0,0,0,.7.508,2.338,2.338,0,0,0,.924.184,1.248,1.248,0,0,0,.732-.184.576.576,0,0,0,.256-.489.487.487,0,0,0-.176-.391,1.356,1.356,0,0,0-.57-.238l-.879-.215a1.793,1.793,0,0,1-.907-.444,1.054,1.054,0,0,1-.287-.759,1.189,1.189,0,0,1,.48-1,2.13,2.13,0,0,1,1.324-.368,2.9,2.9,0,0,1,1.064.185,1.641,1.641,0,0,1,.732.525l-.4.547a1.9,1.9,0,0,0-1.41-.565,1.273,1.273,0,0,0-.722.17.547.547,0,0,0-.247.476.47.47,0,0,0,.17.377,1.354,1.354,0,0,0,.565.233l.872.216a1.989,1.989,0,0,1,.942.453,1.037,1.037,0,0,1,.287.759,1.227,1.227,0,0,1-.484,1.023,2.159,2.159,0,0,1-1.356.377,3.055,3.055,0,0,1-1.185-.22" fill="#fff"/>
  <path id="Path_107358" data-name="Path 107358" d="M2.912,23.332a1.032,1.032,0,0,0-.747.306.994.994,0,0,0-.313.739,1.017,1.017,0,0,0,.313.746,1.044,1.044,0,0,0,1.493,0,1.018,1.018,0,0,0,.314-.746,1,1,0,0,0-.314-.739,1.03,1.03,0,0,0-.746-.306" fill="#fff"/>
  <path id="Path_107359" data-name="Path 107359" d="M5.674,23.332a1.032,1.032,0,0,0-.747.306.994.994,0,0,0-.313.739,1.055,1.055,0,0,0,1.806.746,1.018,1.018,0,0,0,.314-.746,1,1,0,0,0-.314-.739,1.03,1.03,0,0,0-.746-.306" fill="#fff"/>
  <path id="Path_107360" data-name="Path 107360" d="M43.273,11.4a1.032,1.032,0,0,0,.747-.306,1.012,1.012,0,0,0,.314-.754A1,1,0,0,0,44.02,9.6a1.064,1.064,0,0,0-1.493,0,1,1,0,0,0-.314.739,1.012,1.012,0,0,0,.314.754,1.03,1.03,0,0,0,.746.306" fill="#fff"/>
  <path id="Path_107361" data-name="Path 107361" d="M63.619,12.022a4,4,0,0,0-1.956-.5,4.339,4.339,0,0,0-1.224.194l-3.7,1.12V8.34H54.943v8.616H45.289a1.1,1.1,0,0,1-.747-.291,1.148,1.148,0,0,1-.388-.724V13H42.347v2.926a1,1,0,0,1-.3.724.982.982,0,0,1-.731.306h-.508c-.036,0-.071,0-.1.005v-.005H14.6a.372.372,0,0,1-.372-.374l.023-5.06H10.156a2.45,2.45,0,0,0-1.257.331A2.487,2.487,0,0,0,7.857,13a2.373,2.373,0,0,0-.2,1v5.467a.548.548,0,0,1-.166.405.53.53,0,0,1-.386.166H4.287a2.112,2.112,0,0,1-1.1-.307,2.315,2.315,0,0,1-.9-1,2.032,2.032,0,0,1-.206-.914V15.06H.239V17.8a3.9,3.9,0,0,0,.546,2.012,4.006,4.006,0,0,0,1.478,1.472,3.942,3.942,0,0,0,2.024.546H8.1a1.331,1.331,0,0,0,.975-.411,1.362,1.362,0,0,0,.411-1.006V13.956a.578.578,0,0,1,.2-.442.675.675,0,0,1,.472-.184h2.281l-.027,3.534a1.885,1.885,0,0,0,1.885,1.9H40.7v0c.034,0,.069,0,.1,0h.717a2.4,2.4,0,0,0,1-.216,2.67,2.67,0,0,0,.836-.59,2.779,2.779,0,0,0,.874.59,2.625,2.625,0,0,0,1.053.216H64.082a1.5,1.5,0,0,0,1.493-1.493V15.4a3.707,3.707,0,0,0-.553-2.016,3.522,3.522,0,0,0-1.4-1.366m.164,4.576a.36.36,0,0,1-.1.254.324.324,0,0,1-.246.1h-6.7V14.7l4.241-1.284a2.974,2.974,0,0,1,.7-.105,2.181,2.181,0,0,1,1.053.262,1.819,1.819,0,0,1,.739.709,2.087,2.087,0,0,1,.313,1.12Z" fill="#fff"/>
  <path id="Path_107362" data-name="Path 107362" d="M85.973,16.314a.637.637,0,0,1-.643.642H73.952V11.521H70.577A3.556,3.556,0,0,0,66.994,15.1a3.651,3.651,0,0,0,1.777,3.165,3.435,3.435,0,0,0,1.806.493h1.508l-.015.179a1.489,1.489,0,0,1-.433.866,2.588,2.588,0,0,1-1.276.627,10.933,10.933,0,0,1-2.038.15H67.83v1.791a19.453,19.453,0,0,0,2.284-.082,5.31,5.31,0,0,0,1.523-.373,4.07,4.07,0,0,0,1.195-.8,3.351,3.351,0,0,0,1.1-2.359H85.345a2.371,2.371,0,0,0,1.217-.328,2.441,2.441,0,0,0,.889-.9,2.416,2.416,0,0,0,.328-1.225V8.34H85.973Zm-13.843.642H70.577a1.7,1.7,0,0,1-1.269-.537,1.811,1.811,0,0,1-.522-1.314,1.705,1.705,0,0,1,.515-1.269,1.744,1.744,0,0,1,1.276-.508H72.13Z" fill="#fff"/>
  <rect id="Rectangle_13804" data-name="Rectangle 13804" width="1.807" height="10.452" transform="translate(90.318 8.311)" fill="#fff"/>
  <path id="Path_107363" data-name="Path 107363" d="M99.575,10.222a1.071,1.071,0,0,0,1.06-1.06.992.992,0,0,0-.313-.739,1.061,1.061,0,0,0-1.493,0,.993.993,0,0,0-.314.739,1.072,1.072,0,0,0,1.06,1.06" fill="#fff"/>
  <path id="Path_107364" data-name="Path 107364" d="M139.886,12.013a3.86,3.86,0,0,0-1.964-.522H135.13l2.389-3.315L136.041,7.13l-3.016,4.2,1.329,1.985H137.8a2.222,2.222,0,0,1,1.112.291,2.146,2.146,0,0,1,.814.807,2.207,2.207,0,0,1,.3,1.127v1.045a.367.367,0,0,1-.1.261.349.349,0,0,1-.269.112h-37.9A1.274,1.274,0,0,1,100.5,15.7V11.55H98.709V18.4a2.323,2.323,0,0,1-.246,1.15,1.623,1.623,0,0,1-.732.664,5.743,5.743,0,0,1-1.336.4l.657,1.7a4.573,4.573,0,0,0,2.411-1.164,3.48,3.48,0,0,0,1.008-2.33l.015-.493a1.92,1.92,0,0,0,1.269.433H140.7a1.085,1.085,0,0,0,.807-.336,1.1,1.1,0,0,0,.328-.8V15.418a3.9,3.9,0,0,0-1.948-3.405" fill="#fff"/>
  <path id="Path_107365" data-name="Path 107365" d="M173.326,16.314a.635.635,0,0,1-.642.642h-5.839a.664.664,0,0,1-.5-.209.7.7,0,0,1-.2-.507V14.911a3.246,3.246,0,0,0-.5-1.7,3.568,3.568,0,0,0-1.284-1.232,3.418,3.418,0,0,0-1.724-.456h-3.673v4.6a.827.827,0,0,1-.224.612.807.807,0,0,1-.6.224H147.882a1.274,1.274,0,0,1-1.254-1.254V11.551h-1.792v6.854a1.83,1.83,0,0,1-.59,1.5,3.874,3.874,0,0,1-1.725.709l.657,1.7a4.573,4.573,0,0,0,2.412-1.165,3.478,3.478,0,0,0,1.008-2.329l.015-.493a2.037,2.037,0,0,0,1.269.433H158.14a2.365,2.365,0,0,0,1.12-.276,2.43,2.43,0,0,0,.866-.769,3.237,3.237,0,0,0,2.509,1.045,3.074,3.074,0,0,0,1.291-.276,3.146,3.146,0,0,0,1.038-.754,2.123,2.123,0,0,0,.784.746,2.185,2.185,0,0,0,1.1.284H172.7a2.371,2.371,0,0,0,1.217-.328,2.448,2.448,0,0,0,.889-.9,2.416,2.416,0,0,0,.328-1.225V8.34h-1.807Zm-9-1.075a1.637,1.637,0,0,1-.508,1.225,1.848,1.848,0,0,1-1.344.492,1.654,1.654,0,0,1-1.179-.485,1.543,1.543,0,0,1-.508-1.157V13.328h1.687a1.914,1.914,0,0,1,1.314.448,1.573,1.573,0,0,1,.538,1.165Z" fill="#fff"/>
  <rect id="Rectangle_13805" data-name="Rectangle 13805" width="1.807" height="10.452" transform="translate(177.671 8.311)" fill="#fff"/>
  <path id="Path_107366" data-name="Path 107366" d="M104.314,33.31a1.032,1.032,0,0,0,.747-.306,1.013,1.013,0,0,0,.313-.754.994.994,0,0,0-.313-.739,1.064,1.064,0,0,0-1.493,0,1,1,0,0,0-.314.739,1.014,1.014,0,0,0,.314.754,1.03,1.03,0,0,0,.746.306" fill="#fff"/>
  <path id="Path_107367" data-name="Path 107367" d="M101.552,33.31a1.048,1.048,0,0,0,.761-.306,1.014,1.014,0,0,0,.314-.754,1,1,0,0,0-.314-.739,1.048,1.048,0,0,0-.761-.306,1.015,1.015,0,0,0-.732.306.994.994,0,0,0-.313.739,1.026,1.026,0,0,0,.306.754,1.006,1.006,0,0,0,.739.306" fill="#fff"/>
  <path id="Path_107368" data-name="Path 107368" d="M106.793,38.461a.332.332,0,0,1-.344.343h-6.121a1.324,1.324,0,0,1-.964-.388,1.284,1.284,0,0,1-.395-.955V34.937H97.147v2.524a3.061,3.061,0,0,0,.425,1.575,3.151,3.151,0,0,0,1.158,1.149,3.117,3.117,0,0,0,1.6.426h6.6a1.623,1.623,0,0,0,1.194-.493,1.605,1.605,0,0,0,.493-1.179V33.4h-1.821Z" fill="#fff"/>
  <path id="Path_107369" data-name="Path 107369" d="M140.483,33.862a3.86,3.86,0,0,0-1.964-.522h-2.792l2.389-3.315-1.478-1.046-3.016,4.2,1.329,1.985H138.4a2.222,2.222,0,0,1,1.112.291,2.146,2.146,0,0,1,.814.807,2.207,2.207,0,0,1,.3,1.127v1.045a.367.367,0,0,1-.1.261.349.349,0,0,1-.269.112H113.2a.635.635,0,0,1-.642-.642V30.174H110.75v7.988a2.448,2.448,0,0,0,2.449,2.449h28.1a1.085,1.085,0,0,0,.807-.336,1.1,1.1,0,0,0,.328-.8V37.267a3.888,3.888,0,0,0-.522-1.979,3.849,3.849,0,0,0-1.426-1.426" fill="#fff"/>
  <rect id="Rectangle_13806" data-name="Rectangle 13806" width="1.807" height="10.452" transform="translate(144.567 30.16)" fill="#fff"/>
  <path id="Path_107370" data-name="Path 107370" d="M163.038,33.31a1.032,1.032,0,0,0,.746-.306,1.014,1.014,0,0,0,.314-.754,1,1,0,0,0-.314-.739,1.064,1.064,0,0,0-1.493,0,1,1,0,0,0-.314.739,1.014,1.014,0,0,0,.314.754,1.032,1.032,0,0,0,.747.306" fill="#fff"/>
  <path id="Path_107371" data-name="Path 107371" d="M164.829,32.25a1.014,1.014,0,0,0,.314.754,1.064,1.064,0,0,0,1.493,0,1.013,1.013,0,0,0,.313-.754.994.994,0,0,0-.313-.739,1.064,1.064,0,0,0-1.493,0,1,1,0,0,0-.314.739" fill="#fff"/>
  <path id="Path_107372" data-name="Path 107372" d="M164.441,30.727a1.071,1.071,0,0,0,1.06-1.06.994.994,0,0,0-.313-.739,1.064,1.064,0,0,0-1.493,0,.991.991,0,0,0-.314.739,1.072,1.072,0,0,0,1.06,1.06" fill="#fff"/>
  <path id="Path_107373" data-name="Path 107373" d="M177.671,30.189v7.974a.639.639,0,0,1-.642.642h-1.075a1.114,1.114,0,0,1-.762-.291,1.087,1.087,0,0,1-.373-.725v-7.6H173v7.586a1,1,0,0,1-.3.724.969.969,0,0,1-.717.306h-.358a1.186,1.186,0,0,0-.192.015h-.525a.638.638,0,0,1-.657-.657V33.385h-1.792v4.091a1.272,1.272,0,0,1-.388.956,1.425,1.425,0,0,1-1.031.373,1.4,1.4,0,0,1-1-.351,1.2,1.2,0,0,1-.374-.918V34.848h-1.806v2.628a1.292,1.292,0,0,1-.388.963,1.409,1.409,0,0,1-1.031.381,1.441,1.441,0,0,1-1.007-.359,1.189,1.189,0,0,1-.4-.925V34.848H159.26v3.315a.644.644,0,0,1-.187.463.609.609,0,0,1-.455.194h-.478v-.015h-5.316a1.274,1.274,0,0,1-1.254-1.254V33.4h-1.792v6.854a1.83,1.83,0,0,1-.59,1.5,3.886,3.886,0,0,1-1.724.709l.657,1.7A4.574,4.574,0,0,0,150.532,43a3.48,3.48,0,0,0,1.008-2.329l.015-.493a2.045,2.045,0,0,0,1.269.433h5.794a2.1,2.1,0,0,0,.963-.224,2.311,2.311,0,0,0,.754-.612,2.5,2.5,0,0,0,.918.627,2.937,2.937,0,0,0,1.083.209,3.488,3.488,0,0,0,1.373-.254,2.881,2.881,0,0,0,1.061-.791,2.592,2.592,0,0,0,.94.769,3.007,3.007,0,0,0,1.329.276,3.081,3.081,0,0,0,1.165-.224,2.846,2.846,0,0,0,.956-.627,2.156,2.156,0,0,0,.761.619,2.18,2.18,0,0,0,.986.232h1.269a2.424,2.424,0,0,0,1.016-.217,2.519,2.519,0,0,0,.821-.59,2.95,2.95,0,0,0,.888.59,2.616,2.616,0,0,0,1.053.217h1.089a2.36,2.36,0,0,0,1.217-.329,2.426,2.426,0,0,0,.889-.9,2.4,2.4,0,0,0,.328-1.224V30.189Z" fill="#fff"/>
  <path id="Path_107374" data-name="Path 107374" d="M22.533,41.851a1.032,1.032,0,0,0-.747.306.994.994,0,0,0-.313.739,1.01,1.01,0,0,0,.313.754,1.064,1.064,0,0,0,1.493,0,1.011,1.011,0,0,0,.314-.754,1,1,0,0,0-.314-.739,1.03,1.03,0,0,0-.746-.306" fill="#fff"/>
  <path id="Path_107375" data-name="Path 107375" d="M19.741,41.851A1.071,1.071,0,0,0,18.7,42.9,1.023,1.023,0,0,0,19,43.65a1,1,0,0,0,.739.306,1.05,1.05,0,0,0,.761-.306,1.011,1.011,0,0,0,.314-.754,1,1,0,0,0-.314-.739,1.05,1.05,0,0,0-.761-.306" fill="#fff"/>
  <path id="Path_107376" data-name="Path 107376" d="M28.954,41.806a1.032,1.032,0,0,0-.748.307.991.991,0,0,0-.313.739,1.061,1.061,0,0,0,2.121,0,.989.989,0,0,0-.315-.739,1.025,1.025,0,0,0-.745-.307" fill="#fff"/>
  <path id="Path_107377" data-name="Path 107377" d="M35.135,41.851A1.071,1.071,0,0,0,34.09,42.9a1.023,1.023,0,0,0,.306.754,1.006,1.006,0,0,0,.739.306,1.05,1.05,0,0,0,.761-.306,1.011,1.011,0,0,0,.314-.754,1,1,0,0,0-.314-.739,1.05,1.05,0,0,0-.761-.306" fill="#fff"/>
  <path id="Path_107378" data-name="Path 107378" d="M37.927,41.851a1.032,1.032,0,0,0-.747.306.994.994,0,0,0-.313.739,1.01,1.01,0,0,0,.313.754,1.064,1.064,0,0,0,1.493,0,1.011,1.011,0,0,0,.314-.754,1,1,0,0,0-.314-.739,1.03,1.03,0,0,0-.746-.306" fill="#fff"/>
  <path id="Path_107379" data-name="Path 107379" d="M44.243,29.965a1.027,1.027,0,0,0-.746.307.993.993,0,0,0-.314.739,1.06,1.06,0,0,0,2.12,0,.992.992,0,0,0-.313-.739,1.029,1.029,0,0,0-.747-.307" fill="#fff"/>
  <path id="Path_107380" data-name="Path 107380" d="M42.347,38.133a.649.649,0,0,1-.194.477.667.667,0,0,1-.493.194H38.674a1.114,1.114,0,0,1-.762-.291,1.085,1.085,0,0,1-.373-.724V34.624H35.717v3.15a1,1,0,0,1-.3.724.959.959,0,0,1-.716.306H32.716a.592.592,0,0,1-.47-.194.756.756,0,0,1-.172-.522V37.7a4.426,4.426,0,0,0-.44-2.076,3.758,3.758,0,0,0-1.1-1.314,4.912,4.912,0,0,0-3-.925,6.243,6.243,0,0,0-2.554.522l.657,1.628a6.281,6.281,0,0,1,1.972-.359,2.947,2.947,0,0,1,1.851.553,2.429,2.429,0,0,1,.851,2.075v.3a.787.787,0,0,0,.112.41.852.852,0,0,0,.277.291H23.279a1.113,1.113,0,0,1-.761-.291,1.081,1.081,0,0,1-.373-.724V34.624H20.323v3.15a1,1,0,0,1-.3.724.962.962,0,0,1-.716.306H7.959a.808.808,0,0,1-.612-.216.83.83,0,0,1-.209-.6L7.123,33.37H3.539a3.749,3.749,0,0,0-1.806.433,3.209,3.209,0,0,0-1.27,1.216A3.442,3.442,0,0,0,0,36.8v.388A3.178,3.178,0,0,0,.486,38.9a3.573,3.573,0,0,0,1.3,1.247,3.473,3.473,0,0,0,1.754.463,3.251,3.251,0,0,0,2.419-1.06,2.473,2.473,0,0,0,.874.777,2.353,2.353,0,0,0,1.127.283H19.5a2.422,2.422,0,0,0,1.015-.216,2.5,2.5,0,0,0,.821-.59,2.967,2.967,0,0,0,.889.59,2.607,2.607,0,0,0,1.052.216H34.9a2.419,2.419,0,0,0,1.015-.216,2.5,2.5,0,0,0,.822-.59,2.962,2.962,0,0,0,.888.59,2.608,2.608,0,0,0,1.053.216H41.66a2.428,2.428,0,0,0,1.247-.336,2.512,2.512,0,0,0,.911-.9,2.389,2.389,0,0,0,.336-1.239V33.37H42.347Zm-37.016-1.1a1.71,1.71,0,0,1-.522,1.254,1.727,1.727,0,0,1-1.27.522A1.747,1.747,0,0,1,2.3,38.312a1.579,1.579,0,0,1-.522-1.195V36.8A1.493,1.493,0,0,1,2.3,35.609a1.79,1.79,0,0,1,1.239-.433l1.792.03Z" fill="#fff"/>
  <path id="Path_107381" data-name="Path 107381" d="M41.481,32.071a1.071,1.071,0,0,0,1.06-1.06.992.992,0,0,0-.313-.739,1.061,1.061,0,0,0-1.493,0,.993.993,0,0,0-.314.739,1.072,1.072,0,0,0,1.06,1.06" fill="#fff"/>
  <rect id="Rectangle_13807" data-name="Rectangle 13807" width="1.807" height="10.452" transform="translate(47.201 30.16)" fill="#fff"/>
  <path id="Path_107382" data-name="Path 107382" d="M64.894,33.295a1.071,1.071,0,0,0,1.06-1.06.994.994,0,0,0-.313-.739,1.064,1.064,0,0,0-1.493,0,1,1,0,0,0-.314.739,1.072,1.072,0,0,0,1.06,1.06" fill="#fff"/>
  <path id="Path_107383" data-name="Path 107383" d="M62.147,33.295a1.072,1.072,0,0,0,1.06-1.06,1,1,0,0,0-.314-.739,1.064,1.064,0,0,0-1.493,0,.994.994,0,0,0-.313.739,1.071,1.071,0,0,0,1.06,1.06" fill="#fff"/>
  <path id="Path_107384" data-name="Path 107384" d="M76.944,37.505a1.25,1.25,0,0,1-.374.934,1.39,1.39,0,0,1-1.015.366,1.371,1.371,0,0,1-.978-.343,1.173,1.173,0,0,1-.366-.9V34.848H72.42v2.657a1.249,1.249,0,0,1-.388.941A1.427,1.427,0,0,1,71,38.819a1.389,1.389,0,0,1-.978-.35,1.174,1.174,0,0,1-.381-.9V34.848H67.865v3.344a.637.637,0,0,1-.627.627h-.711a.944.944,0,0,0-.17-.014h-.731a1.1,1.1,0,0,1-.747-.291,1.146,1.146,0,0,1-.388-.725v-2.97H62.684v2.955a1,1,0,0,1-.3.724.985.985,0,0,1-.732.307h-6.2A1.276,1.276,0,0,1,54.2,37.55V33.4H52.411v6.853a1.824,1.824,0,0,1-.59,1.5,3.874,3.874,0,0,1-1.724.709l.657,1.7A4.566,4.566,0,0,0,53.165,43a3.478,3.478,0,0,0,1.008-2.329l.015-.493a2.037,2.037,0,0,0,1.269.433h6.406a2.426,2.426,0,0,0,1-.215,2.749,2.749,0,0,0,.836-.59,2.831,2.831,0,0,0,.873.59,2.648,2.648,0,0,0,1.053.215h1.612a2.065,2.065,0,0,0,.948-.224,2.223,2.223,0,0,0,.739-.6,2.869,2.869,0,0,0,.9.6,2.738,2.738,0,0,0,1.076.215,3.539,3.539,0,0,0,1.358-.246,2.89,2.89,0,0,0,1.061-.768,2.672,2.672,0,0,0,2.239,1.014,3.256,3.256,0,0,0,1.6-.4,3.022,3.022,0,0,0,1.582-2.7V33.4H76.944Z" fill="#fff"/>
  <path id="Path_107385" data-name="Path 107385" d="M86.307,38.163a.637.637,0,0,1-.642.642H84.306V32.22H82.5l.014,6.585H80.26v1.807h5.42a2.374,2.374,0,0,0,1.217-.328,2.438,2.438,0,0,0,.888-.9,2.406,2.406,0,0,0,.328-1.225V30.189H86.307Z" fill="#fff"/>
  <rect id="Rectangle_13808" data-name="Rectangle 13808" width="1.807" height="10.452" transform="translate(90.324 30.16)" fill="#fff"/>
  <path id="Path_107386" data-name="Path 107386" d="M2.912,32.086a1.032,1.032,0,0,0,.747-.306,1.013,1.013,0,0,0,.313-.754,1,1,0,0,0-.313-.74,1.064,1.064,0,0,0-1.493,0,1,1,0,0,0-.314.74,1.014,1.014,0,0,0,.314.754,1.03,1.03,0,0,0,.746.306" fill="#fff"/>
  <path id="Path_107387" data-name="Path 107387" d="M5.66,32.086a1.05,1.05,0,0,0,.761-.306,1.014,1.014,0,0,0,.314-.754,1,1,0,0,0-.314-.74,1.054,1.054,0,0,0-.761-.306,1.019,1.019,0,0,0-.732.306,1,1,0,0,0-.314.74,1.027,1.027,0,0,0,.307.754,1.006,1.006,0,0,0,.739.306" fill="#fff"/>
  <g id="Group_48827" data-name="Group 48827" opacity="0.65">
    <g id="Group_48826" data-name="Group 48826">
      <g id="Group_48825" data-name="Group 48825" clip-path="url(#clip-path)">
        <g id="Group_48824" data-name="Group 48824">
          <g id="Group_48823" data-name="Group 48823" clip-path="url(#clip-path)">
            <path id="Path_107388" data-name="Path 107388" d="M251.309,35.584l-6.4,1.691a35.141,35.141,0,0,1,6.216-6.568q-.018,2.44.183,4.877" fill="#fff"/>
            <path id="Path_107389" data-name="Path 107389" d="M261.166,37.262l-6.344-1.676q.193-2.3.186-4.61a34.655,34.655,0,0,1,6.158,6.286" fill="#fff"/>
            <path id="Path_107390" data-name="Path 107390" d="M248.228,29.283c-2.493,2.79-4.362,5.5-4.593,8.329L225.69,42.354l-.785.208-.031.008-11.547,3.051-9.1,2.4a2.15,2.15,0,0,1-2.452-2.128V19.785a2.15,2.15,0,0,1,2.452-2.128l9.1,2.4,11.547,3.051,16.749,4.425a5.591,5.591,0,0,0-1.779,4.787c.422-1.178,4.414-3.4,7.442-3.29h0Z" fill="#fff"/>
            <path id="Path_107391" data-name="Path 107391" d="M304.346,19.785V45.9a2.149,2.149,0,0,1-2.452,2.128l-9.1-2.4L281.252,42.57h0l-.045-.012-.01,0-18.688-4.938c-.183-2.82-1.953-5.5-4.619-8.332l.327-.087h0a11.27,11.27,0,0,1,8.064,3.126,5.57,5.57,0,0,0-1.794-4.782l16.765-4.431L292.8,20.06l9.1-2.4a2.149,2.149,0,0,1,2.452,2.128" fill="#fff"/>
            <path id="Path_107392" data-name="Path 107392" d="M249.318,51.316l.014.009-.58.383Z" fill="#fff"/>
            <path id="Path_107393" data-name="Path 107393" d="M224.874,42.557q.408-.108.817-.2l-.785.208-.032,0" fill="#fff"/>
          </g>
        </g>
      </g>
    </g>
  </g>
  <g id="Group_48832" data-name="Group 48832" opacity="0.8">
    <g id="Group_48831" data-name="Group 48831">
      <g id="Group_48830" data-name="Group 48830" clip-path="url(#clip-path-3)">
        <g id="Group_48829" data-name="Group 48829">
          <g id="Group_48828" data-name="Group 48828" clip-path="url(#clip-path-4)">
            <path id="Path_107394" data-name="Path 107394" d="M225.691,42.354l-.785.207a56.627,56.627,0,0,1,13.3,3.174q1.3.481,2.578,1.029l-15.906,8.119-8.69,4.436a2.149,2.149,0,0,1-2.857-2.03V8.392a2.149,2.149,0,0,1,2.857-2.029l8.69,4.435,17.4,8.882h0c2.776,2.2,3.719,3.06,5.7,4.678a13.1,13.1,0,0,0-6.353,3.18,5.584,5.584,0,0,0-1.779,4.786c.422-1.179,4.414-3.4,7.442-3.29a4.784,4.784,0,0,1,1.034.146l-.092.1c-2.493,2.791-4.362,5.5-4.593,8.329a7.028,7.028,0,0,0,.08,1.793,16.31,16.31,0,0,1,1.194-2.129,35.185,35.185,0,0,1,6.217-6.569q-.02,2.442.183,4.877a52.534,52.534,0,0,0,.735,5.43l-6.377,3.255a31.234,31.234,0,0,0-19.977-1.915" fill="#fff"/>
            <path id="Path_107395" data-name="Path 107395" d="M292.8,8.392v48.9a2.15,2.15,0,0,1-2.857,2.03l-8.69-4.436-15.92-8.126a56.645,56.645,0,0,1,15.912-4.187h.007l-.045-.011-.009,0a31.237,31.237,0,0,0-20.761,1.7l-6.354-3.243a52.3,52.3,0,0,0,.74-5.429q.193-2.3.186-4.61a34.655,34.655,0,0,1,6.158,6.286,15.687,15.687,0,0,1,1.243,2.143,7.5,7.5,0,0,0,.1-1.788c-.183-2.82-1.953-5.5-4.619-8.332l-.1-.1.423.013a11.265,11.265,0,0,1,8.064,3.126,5.57,5.57,0,0,0-1.794-4.782,13.447,13.447,0,0,0-6.627-3.237c3.5-2.541,4.056-2.848,7.1-5.19h0l16.3-8.317,8.69-4.436a2.149,2.149,0,0,1,2.857,2.03" fill="#fff"/>
          </g>
        </g>
      </g>
    </g>
  </g>
  <g id="Group_48837" data-name="Group 48837" opacity="0.85">
    <g id="Group_48836" data-name="Group 48836">
      <g id="Group_48835" data-name="Group 48835" clip-path="url(#clip-path-5)">
        <g id="Group_48834" data-name="Group 48834">
          <g id="Group_48833" data-name="Group 48833" clip-path="url(#clip-path-6)">
            <path id="Path_107396" data-name="Path 107396" d="M247.287,29.034l.941.249.093-.1a4.723,4.723,0,0,0-1.034-.146m0,0,.941.249.093-.1a4.723,4.723,0,0,0-1.034-.146m0,0,.941.249.093-.1a4.723,4.723,0,0,0-1.034-.146M278.264.173l-25.2,16.648L227.862.173a2.15,2.15,0,0,0-2.988,1.98V63.528a2.15,2.15,0,0,0,2.988,1.98l20.888-13.8h0l.58-.383-.013-.009a56.551,56.551,0,0,0-8.538-4.553q-1.276-.546-2.578-1.029a56.639,56.639,0,0,0-13.3-3.174l.785-.207a31.23,31.23,0,0,1,24.945,4.721l2.4,1.665,2.4-1.665a31.25,31.25,0,0,1,25.753-4.52l.009,0,.045.012h-.006a56.636,56.636,0,0,0-24.472,8.741l21.491,14.2a2.15,2.15,0,0,0,2.988-1.98V2.153a2.15,2.15,0,0,0-2.988-1.98M264.956,19.116c-3.039,2.341-3.6,2.648-7.1,5.189a13.454,13.454,0,0,1,6.628,3.237,5.572,5.572,0,0,1,1.793,4.782,11.27,11.27,0,0,0-8.064-3.126l-.422-.013.094.1c2.667,2.834,4.436,5.512,4.619,8.332a7.4,7.4,0,0,1-.1,1.788,15.687,15.687,0,0,0-1.243-2.143,34.649,34.649,0,0,0-6.157-6.286q.006,2.307-.186,4.61a52.568,52.568,0,0,1-.741,5.429q-.414,2.19-1.019,4.341-.6-2.149-1.018-4.342a52.809,52.809,0,0,1-.736-5.43q-.2-2.433-.182-4.877a35.12,35.12,0,0,0-6.217,6.569,16.194,16.194,0,0,0-1.194,2.129,7.03,7.03,0,0,1-.08-1.793c.23-2.824,2.1-5.539,4.592-8.329l.093-.1a4.723,4.723,0,0,0-1.034-.146c-3.029-.114-7.02,2.111-7.442,3.29a5.584,5.584,0,0,1,1.779-4.786,13.087,13.087,0,0,1,6.353-3.18c-1.983-1.618-2.925-2.474-5.7-4.678h0l-.009-.007c2.893-.523,5.9,1.722,9.4,3.857a53.118,53.118,0,0,1,1.4-6.69,52.912,52.912,0,0,1,1.354,6.453c3.465-2.066,7.557-4.784,10.54-4.178h0m-17.669,9.918.941.249.093-.1a4.723,4.723,0,0,0-1.034-.146m0,0,.941.249.093-.1a4.723,4.723,0,0,0-1.034-.146m0,0,.941.249.093-.1a4.723,4.723,0,0,0-1.034-.146" fill="#fff"/>
          </g>
        </g>
      </g>
    </g>
  </g>
  <path id="Path_107321" data-name="Path 107321" d="M4.865,51.056V55.93L1.238,51.056H.43v6.285h.853V52.465L4.91,57.341h.808V51.056Z" fill="#fff"/>
</svg>
